<svg width="23" height="31" viewBox="0 0 23 31" fill="none" xmlns="http://www.w3.org/2000/svg">
<path d="M8.80602 31C8.47372 31 8.15329 31 7.82098 31C7.78538 31 7.76164 30.9877 7.72604 30.9877C7.46495 30.9755 7.20385 30.9755 6.94276 30.9632C6.89529 30.9632 6.84782 30.9632 6.80034 30.9632C6.58672 30.9509 6.38497 30.9386 6.17134 30.9386C6.02893 30.9264 5.88651 30.9264 5.7441 30.9141C5.64916 30.9141 5.55421 30.9018 5.4474 30.8895C5.32872 30.8773 5.19818 30.865 5.0795 30.865C4.97269 30.8527 4.87774 30.8527 4.77093 30.8405C4.60478 30.8282 4.4505 30.8036 4.28435 30.7914C4.14193 30.7791 3.99952 30.7668 3.8571 30.7546C3.61974 30.73 3.38239 30.7177 3.14503 30.7055C3.10942 30.7055 3.08569 30.7055 3.05009 30.7055C2.88393 30.6932 2.71778 30.6809 2.5635 30.6809C2.45669 30.6686 2.36175 30.6686 2.25494 30.6564C2.05318 30.6318 1.83956 30.6073 1.6378 30.5705C1.43605 30.5336 1.24616 30.4846 1.05628 30.4109C0.890126 30.3496 0.735843 30.2637 0.593428 30.1532C0.439146 30.0305 0.332334 29.8709 0.261127 29.6746C0.213655 29.5396 0.18992 29.4169 0.178052 29.2696C0.154316 29.1101 0.154316 28.9505 0.154316 28.791C0.154316 28.656 0.154316 28.521 0.154316 28.386C0.142448 28.1774 0.142448 27.9687 0.13058 27.7601C0.118712 27.4042 0.106844 27.036 0.0949763 26.6801C0.0831084 26.2015 0.0712405 25.7229 0.0593726 25.2565C0.0475047 24.6061 0.0356368 23.9434 0.0237688 23.293C0.0119009 22.618 0.0119009 21.943 3.30359e-05 21.268C-0.0118349 18.6295 3.30359e-05 15.9909 0.0119009 13.3523C0.0237688 11.3888 0.0119009 9.42518 0.0119009 7.4616C0.0119009 7.37569 0.0119009 7.27751 0.0237688 7.19161C0.0831084 6.82344 0.237391 6.51663 0.510353 6.28345C0.522221 6.27118 0.534089 6.25891 0.545957 6.24663C0.545957 6.23436 0.545957 6.23436 0.545957 6.23436C0.522221 6.20982 0.510353 6.19755 0.486617 6.173C0.35607 6.05028 0.249259 5.91528 0.166184 5.76801C0.0712405 5.51029 3.30359e-05 5.27712 3.30359e-05 5.0194C3.30359e-05 4.73713 0.0831084 4.47941 0.249259 4.24624C0.439146 3.97625 0.700239 3.79216 1.00881 3.69398C1.17496 3.64489 1.34111 3.62035 1.51913 3.60808C1.54286 3.60808 1.5666 3.60808 1.57846 3.5958C1.57846 3.58353 1.59033 3.58353 1.59033 3.57126C1.59033 3.54671 1.59033 3.52217 1.59033 3.48535C1.59033 3.11718 1.64967 2.76128 1.76835 2.40538C1.9345 1.95131 2.1956 1.55859 2.5279 1.21496C2.90767 0.822249 3.35865 0.527712 3.8571 0.319082C4.17754 0.184085 4.49797 0.0859066 4.83027 0.0368171C4.96082 0.0122724 5.09136 0 5.22191 0C5.34059 0 5.43553 0 5.53048 0C5.7441 0 5.94585 0.0245447 6.14761 0.0736342C6.88342 0.233175 7.46495 0.601346 7.90406 1.22724C7.91593 1.25178 7.92779 1.26405 7.95153 1.2886C7.97527 1.26405 7.999 1.25178 8.02274 1.22724C8.15329 1.11679 8.28383 1.00633 8.42625 0.895883C8.628 0.736342 8.82976 0.589074 9.05525 0.46635C9.43502 0.25772 9.83853 0.122724 10.2658 0.110451C10.5031 0.0981789 10.7286 0.122724 10.9541 0.184086C11.4644 0.306809 11.9154 0.552257 12.3071 0.908155C12.6156 1.19042 12.8767 1.5095 13.031 1.91449C13.031 1.92676 13.0429 1.93903 13.0547 1.95131C13.0785 1.95131 13.0903 1.93903 13.1022 1.93903C13.3752 1.85313 13.66 1.81631 13.9448 1.82858C14.0516 1.82858 14.1703 1.85313 14.2771 1.87767C14.6332 1.95131 14.9655 2.11085 15.2503 2.34402C15.7013 2.71219 16.0336 3.17854 16.2353 3.7308C16.4252 4.23397 16.4846 4.76168 16.3896 5.28939C16.3184 5.69438 16.1641 6.05028 15.9268 6.36936C15.82 6.51663 15.6894 6.65162 15.5589 6.77435C15.5351 6.78662 15.5114 6.79889 15.5114 6.83571V6.84798C15.5233 6.87253 15.547 6.89707 15.5589 6.90934C15.7013 7.1057 15.7962 7.31433 15.8556 7.53523C15.9268 7.79295 15.9624 8.06295 15.9742 8.33294C15.9861 8.50475 15.9861 8.68884 15.998 8.86065C15.998 8.88519 15.998 8.89747 16.0098 8.92201C16.0217 8.90974 16.0454 8.90974 16.0573 8.89747C16.1285 8.86065 16.1879 8.82383 16.2591 8.79929C16.71 8.56611 17.1848 8.38203 17.6832 8.2593C17.8731 8.21021 18.063 8.18567 18.2529 8.16112C18.4309 8.14885 18.6089 8.13658 18.7869 8.14885C18.9768 8.16112 19.1548 8.18567 19.3447 8.23476C19.7245 8.33294 20.0805 8.49248 20.4128 8.71338C20.7214 8.92201 20.9944 9.16746 21.2555 9.43745C21.7183 9.91607 22.0743 10.4561 22.3236 11.0819C22.6084 11.7937 22.7745 12.5424 22.8695 13.3032C22.8932 13.4751 22.9051 13.6591 22.9288 13.831C22.9526 14.0764 22.9763 14.3341 22.9763 14.5796C22.9763 14.6287 22.9763 14.6778 22.9763 14.7268C22.9763 14.7514 22.9882 14.7882 22.9882 14.8127C22.9882 15.3527 22.9882 15.8927 22.9882 16.445C22.9882 16.4818 22.9763 16.5186 22.9763 16.5432C22.9763 16.6413 22.9763 16.7395 22.9763 16.8254C22.9644 17.0586 22.9526 17.2795 22.9407 17.5127C22.9288 17.7704 22.917 18.0281 22.9051 18.2858C22.9051 18.3963 22.8932 18.4945 22.8814 18.6049C22.8695 18.8381 22.8458 19.0713 22.8339 19.3044C22.822 19.5008 22.8102 19.6971 22.7983 19.8935C22.7745 20.1144 22.7627 20.3353 22.7389 20.5562C22.7152 20.7771 22.6915 20.998 22.6677 21.2189C22.6203 21.5625 22.5728 21.9062 22.5016 22.2498C22.4066 22.7284 22.288 23.207 22.1218 23.6734C21.9438 24.1766 21.7302 24.6552 21.4453 25.097C21.113 25.6247 20.7095 26.0665 20.2111 26.4224C19.9381 26.6188 19.6414 26.7783 19.3329 26.8888C19.1192 26.9624 18.9056 27.0115 18.6801 27.0483C18.5258 27.0728 18.3716 27.0851 18.2173 27.0974C17.9918 27.1097 17.7663 27.1097 17.5408 27.0851C17.3509 27.0728 17.161 27.0483 16.9711 26.9992C16.532 26.9133 16.1048 26.766 15.7131 26.5451C15.7013 26.5329 15.6775 26.5329 15.6538 26.5206C15.6538 26.5451 15.6419 26.5697 15.6419 26.5819C15.6419 26.6556 15.6419 26.7169 15.6419 26.7906C15.6301 27.1219 15.6301 27.4656 15.6419 27.7969C15.6538 28.1896 15.6657 28.5701 15.6301 28.9628C15.6182 29.1469 15.5945 29.3187 15.5351 29.4905C15.4283 29.8464 15.2266 30.1164 14.9061 30.3005C14.8824 30.3127 14.8705 30.325 14.8468 30.3373C14.6213 30.4477 14.3839 30.5214 14.1466 30.5705C14.016 30.595 13.8736 30.6073 13.7431 30.6318C13.6244 30.6441 13.5057 30.6686 13.387 30.6809C13.2565 30.6932 13.1378 30.7055 13.0073 30.7177C12.8767 30.73 12.7343 30.7546 12.6037 30.7668C12.4495 30.7791 12.2952 30.7914 12.1528 30.8036C12.0697 30.8159 11.9985 30.8159 11.9154 30.8282C11.8086 30.8405 11.7018 30.8527 11.595 30.8527C11.4763 30.865 11.3576 30.865 11.2389 30.8773C11.0728 30.8895 10.9066 30.9018 10.7524 30.9141C10.6099 30.9264 10.4675 30.9264 10.3251 30.9386C10.1115 30.9509 9.89787 30.9632 9.68425 30.9632C9.42315 30.9755 9.16206 30.9755 8.90096 30.9877C8.86536 30.9877 8.82975 31 8.80602 31ZM0.747711 10.5788C0.735843 10.6156 0.735843 10.6524 0.735843 10.6892C0.735843 11.1188 0.735843 11.536 0.735843 11.9656C0.735843 13.021 0.735843 14.0641 0.735843 15.1196C0.735843 15.8436 0.735843 16.58 0.735843 17.304C0.735843 18.8381 0.747711 20.3844 0.759579 21.9184C0.759579 22.4707 0.771447 23.023 0.771447 23.5752C0.783315 24.4834 0.795183 25.3915 0.807051 26.2997C0.807051 26.3979 0.807051 26.5083 0.818919 26.6065C0.818919 26.8642 0.830787 27.1219 0.830787 27.3797C0.830787 27.5269 0.818919 27.6865 0.818919 27.8337C0.818919 28.0178 0.807051 28.2142 0.807051 28.3983C0.807051 28.5455 0.830787 28.6928 0.854522 28.8401C0.937598 29.2451 1.16309 29.5519 1.53099 29.7359C1.6378 29.785 1.74462 29.8341 1.86329 29.8587C2.15999 29.9446 2.45669 29.9691 2.76526 29.9814C3.03822 29.9937 3.31118 29.9937 3.57227 30.0059C3.60788 30.0059 3.64348 30.0059 3.67908 30.0059C3.86897 30.0182 4.07072 30.0305 4.26061 30.055C4.42676 30.0796 4.59291 30.0796 4.7472 30.0918C4.93708 30.1041 5.1151 30.1287 5.30499 30.1409C5.48301 30.1532 5.67289 30.1655 5.85091 30.1777C6.08827 30.19 6.3375 30.2023 6.57485 30.2146C6.85968 30.2268 7.15638 30.2268 7.44121 30.2391C7.53615 30.2391 7.61923 30.2391 7.71417 30.2391C8.01087 30.2391 8.30757 30.2514 8.5924 30.2391C8.9603 30.2391 9.34008 30.2268 9.70798 30.2146C9.9216 30.2146 10.1234 30.2023 10.337 30.19C10.3607 30.19 10.3845 30.19 10.4201 30.19C10.5743 30.1777 10.7286 30.1655 10.8829 30.1655C11.0134 30.1532 11.144 30.1532 11.2745 30.1409C11.4407 30.1287 11.6187 30.1164 11.7849 30.1164C12.046 30.1041 12.3071 30.1041 12.5681 30.0918C12.7936 30.0918 13.0191 30.0796 13.2446 30.055C13.4582 30.0428 13.6719 30.0182 13.8736 29.9814C14.0042 29.9568 14.1347 29.9323 14.2534 29.8709C14.3365 29.8341 14.4077 29.785 14.4789 29.7237C14.5857 29.6132 14.6688 29.4905 14.74 29.3432C14.8349 29.1469 14.8824 28.9382 14.9299 28.7296C14.9892 28.4351 15.0011 28.1405 15.0129 27.846C15.0248 27.3797 15.0011 26.9133 14.9773 26.447C14.9773 26.3365 14.9655 26.226 14.9536 26.1033C14.9417 25.8701 14.9299 25.637 14.9417 25.4038C14.9536 24.8884 14.9655 24.3606 14.9892 23.8452C15.0011 23.612 15.0011 23.3789 15.0129 23.1334C15.0248 22.6548 15.0485 22.1762 15.0604 21.6975C15.0723 21.2803 15.0841 20.863 15.096 20.4458C15.1079 19.8812 15.1197 19.3167 15.1316 18.7522C15.1435 18.4331 15.1435 18.1263 15.1435 17.8072C15.1435 16.899 15.1553 15.9909 15.1553 15.095C15.1553 13.9291 15.1553 12.751 15.1435 11.5851C15.1435 11.3151 15.1316 11.0574 15.1553 10.7874C15.1553 10.7751 15.1553 10.7629 15.1435 10.7383C15.1197 10.7383 15.096 10.726 15.0604 10.726C14.9773 10.7138 14.8943 10.7138 14.8112 10.7015C14.74 10.6892 14.6569 10.6892 14.5857 10.677C14.4789 10.6647 14.3721 10.6524 14.2653 10.6524C14.1822 10.6401 14.0872 10.6401 14.0042 10.6279C13.8974 10.6156 13.7905 10.6033 13.6837 10.6033C13.5651 10.5911 13.4582 10.5911 13.3396 10.5788C13.1259 10.5665 12.9123 10.542 12.6987 10.5297C12.4851 10.5174 12.2714 10.5051 12.046 10.4929C11.7493 10.4806 11.4644 10.4683 11.1677 10.4561C10.7286 10.4438 10.2776 10.4315 9.83853 10.4315C9.43502 10.4315 9.03151 10.4315 8.628 10.4438C8.21262 10.4561 7.79725 10.4683 7.38187 10.4929C7.15638 10.5051 6.93089 10.5051 6.7054 10.5051C6.3731 10.5051 6.05267 10.5051 5.72036 10.4929C5.38806 10.4929 5.05576 10.4806 4.72346 10.4683C4.71159 10.4683 4.69972 10.4683 4.67599 10.4683C4.35556 10.4561 4.02325 10.4438 3.70282 10.4438C3.51293 10.4438 3.32305 10.4438 3.13316 10.4438C2.69405 10.4438 2.24307 10.4438 1.80395 10.4683C1.69714 10.4683 1.57846 10.4806 1.47165 10.4929C1.35297 10.5051 1.24616 10.5174 1.12748 10.5174C1.00881 10.5297 0.890126 10.542 0.771447 10.5542C0.771447 10.5665 0.759579 10.5788 0.747711 10.5788ZM14.9061 6.34481C14.9417 6.33254 14.9655 6.308 14.9892 6.29572C15.2266 6.09937 15.4046 5.85392 15.5233 5.57165C15.6538 5.22803 15.7013 4.87213 15.6657 4.51623C15.6301 4.1726 15.5351 3.85352 15.3808 3.55899C15.2503 3.30127 15.0723 3.08036 14.8468 2.89628C14.4433 2.56492 13.9804 2.45447 13.482 2.5772C13.3158 2.61401 13.1615 2.67538 13.0073 2.74901C12.9598 2.77355 12.9123 2.7981 12.853 2.7981C12.758 2.81037 12.6631 2.78583 12.5681 2.73674C12.4851 2.68765 12.4613 2.60174 12.4495 2.51584C12.4376 2.41766 12.402 2.3072 12.3664 2.2213C12.2714 1.98812 12.1409 1.79177 11.9629 1.60768C11.5712 1.20269 11.1084 0.944972 10.5625 0.859066C10.4082 0.834521 10.2539 0.834521 10.1115 0.846793C9.89787 0.871338 9.68425 0.944972 9.48249 1.04315C9.2926 1.14133 9.11459 1.25178 8.93657 1.38678C8.77042 1.52177 8.60427 1.65677 8.44998 1.79177C8.3313 1.88994 8.22449 1.98812 8.11768 2.0863C8.05834 2.13539 7.98713 2.17221 7.91593 2.19675C7.77351 2.23357 7.61923 2.17221 7.54802 2.02494C7.53615 2.0004 7.52429 1.98812 7.52429 1.96358C7.37 1.66904 7.16825 1.41132 6.90715 1.21496C6.51551 0.920427 6.0764 0.773159 5.60169 0.736342C5.29312 0.711797 4.98455 0.736342 4.67599 0.809976C4.1894 0.920428 3.75029 1.11679 3.34678 1.41132C3.05009 1.63222 2.80086 1.88994 2.61097 2.20903C2.38548 2.5772 2.2668 2.98219 2.27867 3.42399C2.27867 3.57126 2.29054 3.7308 2.32614 3.87807C2.33801 3.9517 2.34988 4.02534 2.32614 4.0867C2.27867 4.27078 2.10065 4.38124 1.92263 4.34442C1.82769 4.33215 1.72088 4.3076 1.62594 4.31987C1.32924 4.33215 1.13935 4.51623 1.06814 4.76168C1.02067 4.90895 1.02067 5.06849 1.05628 5.21576C1.09188 5.39984 1.15122 5.57165 1.2699 5.7312C1.3055 5.76801 1.34111 5.8171 1.37671 5.84165C1.38858 5.84165 1.40045 5.84165 1.41231 5.84165C1.61407 5.79256 1.81582 5.76801 2.01758 5.76801C2.2668 5.75574 2.51603 5.74347 2.76526 5.76801C2.84833 5.76801 2.93141 5.76801 3.01448 5.78028C3.14503 5.79256 3.26371 5.80483 3.39425 5.80483C3.57227 5.8171 3.75029 5.82937 3.91644 5.84165C4.09446 5.85392 4.27248 5.87846 4.46237 5.89074C4.69972 5.90301 4.92521 5.91528 5.16257 5.90301C5.22191 5.90301 5.29312 5.90301 5.35246 5.90301C5.7797 5.89074 6.20695 5.89074 6.63419 5.87846C7.0377 5.87846 7.42934 5.86619 7.83285 5.86619C8.37878 5.86619 8.9247 5.86619 9.47062 5.85392C10.0047 5.85392 10.5506 5.86619 11.0847 5.87846C11.1321 5.87846 11.1677 5.87846 11.2152 5.87846C11.4526 5.89074 11.6899 5.90301 11.9273 5.90301C12.0816 5.91528 12.2358 5.91528 12.3901 5.92755C12.4969 5.92755 12.5919 5.93983 12.6987 5.9521C12.8174 5.96437 12.9361 5.97664 13.0547 5.97664C13.2209 5.98891 13.387 6.00119 13.5413 6.01346C13.6956 6.02573 13.8499 6.05028 14.016 6.07482C14.2297 6.11164 14.4551 6.16073 14.6569 6.24663C14.7518 6.28345 14.8349 6.32027 14.9061 6.34481ZM15.7487 23.0843C15.7487 23.1089 15.7369 23.1089 15.7369 23.1211C15.7131 23.9557 15.6894 24.7902 15.6538 25.6247C15.6538 25.637 15.6538 25.6492 15.6538 25.6738C15.6775 25.6983 15.7131 25.7229 15.7369 25.7474C16.2353 26.1524 16.8169 26.361 17.4459 26.3979C17.7544 26.4101 18.0511 26.3856 18.3597 26.3242C19.0124 26.1892 19.5939 25.907 20.1161 25.4774C20.4722 25.1829 20.7689 24.8393 20.9944 24.422C21.113 24.2134 21.2199 23.9925 21.3148 23.7716C21.5878 23.1211 21.7658 22.4462 21.8845 21.7589C21.9557 21.3785 22.0031 20.9857 22.0387 20.6053C22.0625 20.2985 22.0981 19.9917 22.1218 19.6849C22.1455 19.3535 22.1574 19.0344 22.1693 18.7031C22.193 18.249 22.2049 17.8072 22.2168 17.3531C22.2286 16.8622 22.2405 16.3591 22.2405 15.8682C22.2405 15.6105 22.2405 15.3527 22.2286 15.095C22.2168 14.8373 22.2049 14.5673 22.1812 14.3096C22.1693 14.15 22.1574 13.9905 22.1455 13.831C22.1099 13.561 22.0743 13.2787 22.0269 13.0087C21.9557 12.5669 21.8489 12.1374 21.7064 11.7201C21.5522 11.2538 21.3504 10.8242 21.0656 10.4315C20.7333 9.96516 20.3416 9.57245 19.855 9.29018C19.5109 9.08155 19.1311 8.93428 18.7276 8.88519C18.5258 8.86065 18.336 8.86065 18.1342 8.87292C17.8612 8.89747 17.5883 8.9711 17.3272 9.08155C17.1373 9.15519 16.9474 9.24109 16.7694 9.33927C16.4964 9.47427 16.2353 9.63381 15.9742 9.79335C15.9386 9.81789 15.9149 9.83017 15.9149 9.87926C15.903 10.0388 15.8912 10.1861 15.8793 10.3456C15.8674 10.542 15.8556 10.7383 15.8437 10.947C15.82 11.3028 15.8081 11.6587 15.8081 12.0146C15.8081 12.3215 15.8081 12.6283 15.82 12.9351C15.82 12.9473 15.82 12.9596 15.82 12.9842C15.82 12.9964 15.82 13.0087 15.8437 13.021C15.8556 13.021 15.8674 13.0087 15.8912 12.9964C15.9386 12.9719 15.998 12.9473 16.0454 12.9228C16.4964 12.7142 16.9593 12.616 17.4577 12.6037C17.6832 12.5914 17.9087 12.616 18.1342 12.6528C18.3478 12.6896 18.5496 12.751 18.7395 12.8369C19.1192 13.021 19.4041 13.3032 19.5821 13.696C19.6889 13.9414 19.7601 14.1869 19.8076 14.4446C19.8906 14.8373 19.9262 15.23 19.9381 15.635C19.95 15.9786 19.9619 16.3222 19.95 16.6659C19.95 16.9604 19.9381 17.2549 19.9381 17.5372C19.9381 17.7336 19.9263 17.9422 19.9144 18.1386C19.9144 18.2367 19.9025 18.3349 19.8906 18.4454C19.8669 18.6908 19.855 18.9363 19.8313 19.1817C19.8076 19.4272 19.7838 19.6603 19.7601 19.9058C19.7364 20.139 19.7008 20.3721 19.6652 20.6176C19.6177 20.8998 19.5702 21.1821 19.5227 21.4766C19.4753 21.7221 19.4041 21.9553 19.3091 22.1884C19.143 22.5934 18.87 22.9002 18.4784 23.0966C18.4546 23.1089 18.4309 23.1211 18.3953 23.1334C18.0511 23.293 17.6951 23.3789 17.3153 23.4034C17.0542 23.4157 16.7931 23.4157 16.532 23.3789C16.2709 23.342 16.0217 23.2807 15.7725 23.1948C15.7962 23.0966 15.7725 23.0966 15.7487 23.0843ZM15.2028 10.0265C15.2266 10.002 15.2147 9.96516 15.2266 9.94062C15.2384 9.81789 15.2384 9.69517 15.2503 9.57245C15.274 9.16746 15.274 8.76247 15.2266 8.35748C15.2028 8.14885 15.1553 7.95249 15.0841 7.75614C15.0248 7.58432 14.9299 7.42478 14.823 7.27751C14.6688 7.08116 14.467 6.95843 14.2534 6.86025C13.8261 6.68844 13.387 6.59026 12.9361 6.54117C12.7936 6.5289 12.6394 6.50435 12.4969 6.50435C12.2596 6.49208 12.0341 6.47981 11.7967 6.46754C11.5238 6.46754 11.2508 6.46754 10.9897 6.47981C10.7761 6.49208 10.5625 6.49208 10.337 6.50435C10.3132 6.50435 10.2895 6.50435 10.2539 6.50435C10.0996 6.51663 9.94534 6.5289 9.79106 6.5289C9.63677 6.54117 9.48249 6.54117 9.32821 6.55344C9.09085 6.56572 8.84162 6.57799 8.60427 6.59026C8.55679 6.59026 8.52119 6.59026 8.47372 6.59026C8.16515 6.61481 7.86845 6.59026 7.57176 6.57799C7.45308 6.57799 7.3344 6.56572 7.21572 6.55344C7.0377 6.54117 6.85968 6.5289 6.68166 6.5289C6.51551 6.51663 6.3375 6.51663 6.17134 6.50435C5.94585 6.49208 5.73223 6.47981 5.50674 6.47981C5.35246 6.47981 5.19818 6.46754 5.04389 6.46754C4.46237 6.45527 3.88084 6.45527 3.29931 6.47981C3.28744 6.47981 3.26371 6.47981 3.25184 6.47981C3.12129 6.49208 2.99075 6.49208 2.8602 6.50435C2.71778 6.51663 2.5635 6.5289 2.42109 6.54117C2.27867 6.55344 2.13626 6.57799 1.99384 6.60253C1.78022 6.63935 1.5666 6.68844 1.36484 6.76207C1.2343 6.81116 1.09188 6.87253 0.973201 6.95843C0.901994 7.00752 0.842654 7.06888 0.795183 7.13025C0.747711 7.20388 0.712107 7.28979 0.712107 7.37569C0.712107 7.80523 0.712107 8.23476 0.712107 8.67656C0.712107 9.02019 0.712107 9.36382 0.712107 9.70744C0.712107 9.74426 0.70024 9.7688 0.723975 9.80562C0.747711 9.81789 0.771447 9.80562 0.795183 9.80562C0.878258 9.79335 0.961333 9.78108 1.05628 9.78108C1.17496 9.7688 1.3055 9.7688 1.42418 9.75653C1.66154 9.74426 1.91077 9.73199 2.14812 9.73199C2.57537 9.73199 3.00261 9.71972 3.42986 9.74426C3.72656 9.75653 4.03512 9.75653 4.33182 9.7688C4.36742 9.7688 4.39116 9.7688 4.42676 9.7688C4.77093 9.78108 5.10323 9.79335 5.4474 9.79335C5.93399 9.80562 6.42057 9.79335 6.90715 9.7688C7.10891 9.75653 7.31066 9.75653 7.52429 9.74426C7.55989 9.74426 7.59549 9.74426 7.6311 9.74426C7.95153 9.73199 8.2601 9.71971 8.58053 9.71971C9.00777 9.71971 9.43502 9.71971 9.86226 9.71971C10.1827 9.71971 10.5031 9.71972 10.8236 9.73199C11.1084 9.73199 11.3932 9.74426 11.6781 9.75653C11.8679 9.7688 12.0697 9.7688 12.2596 9.78108C12.2714 9.78108 12.2833 9.78108 12.3071 9.78108C12.4732 9.79335 12.6394 9.80562 12.8055 9.80562C12.9361 9.81789 13.0666 9.81789 13.1971 9.83017C13.2921 9.83017 13.3752 9.84244 13.4701 9.85471C13.5769 9.86698 13.6956 9.87926 13.8024 9.87926C13.9804 9.89153 14.1584 9.9038 14.3365 9.91607C14.5501 9.94062 14.7756 9.96516 14.9892 9.97744C15.0485 9.97744 15.096 9.98971 15.1553 9.98971C15.1791 10.0265 15.191 10.0265 15.2028 10.0265ZM15.8674 13.7205C15.8674 13.7696 15.8674 13.8064 15.8674 13.8432C15.8674 14.5673 15.8674 15.2791 15.8674 16.0032C15.8674 16.58 15.8674 17.1568 15.8556 17.7336C15.8437 18.519 15.8318 19.3167 15.8081 20.1021C15.7962 20.458 15.7962 20.8262 15.7844 21.1821C15.7844 21.2066 15.7844 21.2312 15.7844 21.2557C15.7725 21.5748 15.7606 21.9062 15.7606 22.2253C15.7606 22.2498 15.7606 22.2743 15.7606 22.2989C15.8081 22.3357 15.8556 22.3603 15.903 22.3725C16.1879 22.5075 16.4964 22.5812 16.8169 22.6057C17.1017 22.6302 17.3746 22.6057 17.6476 22.5443C18.0511 22.4462 18.3597 22.2007 18.5614 21.8325C18.6326 21.6975 18.692 21.538 18.7395 21.3907C18.8344 21.0717 18.8819 20.7526 18.9293 20.4212C18.9531 20.2739 18.9649 20.1144 18.9887 19.9671C19.0124 19.7708 19.0362 19.5867 19.0599 19.3903C19.0836 19.1817 19.1192 18.9854 19.143 18.7767C19.1667 18.5926 19.1786 18.4208 19.2023 18.2367C19.2142 18.0527 19.2379 17.8808 19.2379 17.6968C19.2498 17.4758 19.2616 17.2549 19.2616 17.0218C19.2616 16.8254 19.2616 16.6291 19.2616 16.4327C19.2616 16.04 19.2498 15.6473 19.2142 15.2546C19.1904 15.0214 19.1548 14.7882 19.1074 14.5673C19.0718 14.4078 19.0243 14.2605 18.9531 14.1255C18.7869 13.8064 18.5377 13.5855 18.2173 13.4505C18.0274 13.3646 17.8256 13.3278 17.612 13.3032C17.3984 13.2787 17.1966 13.291 16.9949 13.3278C16.6744 13.3892 16.3777 13.4996 16.1048 13.6837C16.0573 13.7205 15.998 13.7328 15.9386 13.7451C15.903 13.7205 15.8912 13.7205 15.8674 13.7205Z" fill="#4E4200"/>
<path d="M13.4344 21.0717C13.4225 21.3785 13.4107 21.6731 13.3869 21.9799C13.3751 22.1149 13.3751 22.2376 13.3632 22.3726C13.3513 22.5567 13.3513 22.7408 13.3395 22.9248C13.3276 23.2194 13.3157 23.5016 13.292 23.7962C13.2801 23.9189 13.2801 24.0416 13.2683 24.1766C13.2564 24.3484 13.2564 24.5325 13.2445 24.7043C13.2326 24.9866 13.2089 25.2689 13.197 25.5511C13.1852 25.7475 13.1852 25.9561 13.1733 26.1525C13.1733 26.312 13.1733 26.4838 13.1733 26.6434C13.1733 26.8643 13.1614 27.0852 13.1258 27.3061C13.1021 27.4411 13.0784 27.5761 13.019 27.7111C12.9953 27.7724 12.9716 27.8215 12.9478 27.8829C12.8173 28.1283 12.6274 28.2879 12.3663 28.3492C12.212 28.3861 12.0577 28.3983 11.9034 28.3492C11.7966 28.3124 11.7017 28.2511 11.6186 28.1774C11.5118 28.0792 11.4406 27.9688 11.3694 27.8461C11.2744 27.6865 11.2032 27.5024 11.1439 27.3306C11.0489 27.0484 10.9896 26.7661 10.9421 26.4716C10.8947 26.177 10.8591 25.8825 10.8235 25.588C10.7997 25.3916 10.7879 25.2075 10.776 25.0111C10.7404 24.3853 10.7285 23.7716 10.7285 23.1458C10.7404 22.6303 10.7523 22.1271 10.7641 21.6117C10.7641 21.3417 10.7641 21.0717 10.776 20.8017C10.7879 20.3476 10.7997 19.8813 10.8116 19.4272C10.8235 19.1818 10.8353 18.9363 10.8472 18.6909C10.8709 18.3473 10.8828 18.0036 10.9065 17.66C10.9184 17.4391 10.9303 17.2305 10.9421 17.0096C10.954 16.8132 10.9659 16.6291 10.9896 16.4328C11.0015 16.2487 11.0133 16.0769 11.0252 15.8928C11.0371 15.7823 11.0489 15.6719 11.0489 15.5614C11.0608 15.451 11.0608 15.3528 11.0727 15.2423C11.0846 15.1073 11.0846 14.9846 11.0964 14.8496C11.1083 14.5551 11.132 14.2606 11.1676 13.966C11.2032 13.6838 11.2626 13.4015 11.3575 13.1315C11.405 12.9965 11.4525 12.8738 11.5237 12.7511C11.583 12.6529 11.6542 12.5547 11.7373 12.4688C11.8916 12.3215 12.0696 12.2356 12.2832 12.2111C12.4494 12.1988 12.6036 12.2479 12.7461 12.3583C12.841 12.432 12.9122 12.5302 12.9716 12.6283C13.0546 12.7633 13.1258 12.9229 13.1852 13.0824C13.2801 13.3524 13.3395 13.6224 13.3869 13.9047C13.4463 14.2115 13.4819 14.5183 13.5056 14.8251C13.5293 15.0583 13.5412 15.2914 13.5531 15.5246C13.5649 15.9051 13.5768 16.2855 13.5768 16.6537C13.5768 17.12 13.565 17.5864 13.5412 18.0527C13.5293 18.4209 13.5056 18.7891 13.4937 19.1572C13.4819 19.4272 13.47 19.7095 13.4581 19.9795C13.47 20.3476 13.4463 20.7158 13.4344 21.0717ZM12.7935 20.0777C12.8054 19.7218 12.8173 19.3536 12.8291 18.9854C12.8291 18.8504 12.841 18.7154 12.8529 18.5804C12.8647 18.1754 12.8885 17.7582 12.9003 17.3532C12.9003 17.2796 12.9003 17.2182 12.9122 17.1446C12.9241 16.7887 12.9241 16.4205 12.9122 16.0646C12.9003 15.8191 12.8885 15.5737 12.8766 15.3283C12.8647 15.1442 12.8529 14.9601 12.841 14.776C12.8291 14.5305 12.8054 14.2851 12.7698 14.0397C12.7461 13.9047 12.7342 13.7819 12.6867 13.6592C12.6749 13.6101 12.6511 13.561 12.6274 13.5242C12.6155 13.4997 12.5918 13.4751 12.5562 13.4629C12.3663 13.4138 12.1764 13.4506 12.0459 13.6469C11.9984 13.7206 11.9746 13.7942 11.9509 13.8678C11.9153 14.0028 11.8916 14.1501 11.8797 14.2851C11.8678 14.4446 11.8678 14.6165 11.856 14.776C11.856 14.8496 11.856 14.9355 11.8441 15.0092C11.8204 15.2792 11.7966 15.5492 11.7729 15.8191C11.7492 16.1014 11.7254 16.3714 11.7017 16.6537C11.6779 16.9973 11.6542 17.3286 11.6305 17.6723C11.6067 17.9914 11.5949 18.3104 11.583 18.6295C11.5711 18.8995 11.5593 19.1818 11.5474 19.4518C11.5355 19.8813 11.5118 20.3231 11.5118 20.7526C11.4999 21.8449 11.4881 22.9371 11.5237 24.0171C11.5237 24.1766 11.5355 24.3239 11.5474 24.4834C11.5474 24.5816 11.5593 24.6798 11.5711 24.778C11.583 24.9621 11.6067 25.1339 11.6067 25.318C11.6186 25.5757 11.6305 25.8457 11.6661 26.1034C11.6898 26.2997 11.7136 26.5084 11.761 26.7047C11.7966 26.8643 11.8441 27.0238 11.9272 27.1588C11.9509 27.1956 11.9509 27.2202 11.9509 27.257C11.9628 27.3306 11.9746 27.4043 11.9865 27.4779C11.9984 27.5147 12.0103 27.5393 12.0221 27.5638C12.0459 27.6129 12.0815 27.6129 12.1171 27.5761C12.1408 27.5638 12.1527 27.5393 12.1645 27.5147C12.1883 27.4656 12.212 27.4165 12.2357 27.3674C12.2595 27.3184 12.2832 27.2693 12.3188 27.2324C12.4731 27.0484 12.5206 26.8397 12.4968 26.6066C12.4968 26.5697 12.4968 26.5452 12.4968 26.5084C12.5918 25.9929 12.6511 25.4775 12.6867 24.9621C12.7105 24.6921 12.7223 24.4343 12.7342 24.1644C12.7461 23.7716 12.7579 23.3789 12.7698 22.9985C12.7817 22.5935 12.7817 22.1885 12.7817 21.7958C12.7817 21.219 12.7817 20.6545 12.7935 20.0777Z" fill="#4E4200"/>
<path d="M9.12689 20.814C9.11503 20.949 9.11503 21.084 9.10316 21.219C9.09129 21.4031 9.09129 21.5994 9.07942 21.7835C9.06755 22.0781 9.05569 22.3726 9.03195 22.6794C9.02008 22.8144 9.02008 22.9371 9.00821 23.0721C8.99635 23.2562 8.99635 23.428 8.98448 23.6121C8.97261 23.8944 8.96074 24.1766 8.93701 24.4589C8.92514 24.5816 8.92514 24.7043 8.91327 24.8271C8.9014 24.9989 8.9014 25.1707 8.88954 25.3302C8.8658 25.6248 8.87767 25.9316 8.87767 26.2384C8.87767 26.4593 8.8658 26.6802 8.84206 26.9011C8.81833 27.0975 8.78272 27.2938 8.71152 27.4779C8.68778 27.5393 8.66405 27.6006 8.62844 27.6497C8.48603 27.9074 8.26054 28.0547 7.97571 28.1038C7.85703 28.1283 7.73835 28.1283 7.61967 28.0915C7.48912 28.0547 7.38231 27.9811 7.2755 27.8829C7.16869 27.7847 7.09748 27.662 7.02627 27.5393C6.9076 27.3306 6.83639 27.0975 6.76518 26.8643C6.68211 26.582 6.63463 26.2998 6.58716 26.0175C6.53969 25.7475 6.51595 25.4652 6.49222 25.1952C6.46848 24.9866 6.46848 24.778 6.45662 24.5571C6.42101 23.9189 6.42101 23.2808 6.43288 22.6303C6.43288 22.299 6.44475 21.9676 6.45662 21.624C6.45662 21.5381 6.45662 21.4522 6.45662 21.3663C6.46848 20.9613 6.46848 20.5563 6.48035 20.1636C6.49222 19.734 6.50409 19.3045 6.52782 18.8627C6.53969 18.6909 6.53969 18.5068 6.55156 18.335C6.56343 18.0773 6.58716 17.8196 6.59903 17.5618C6.6109 17.4637 6.6109 17.3655 6.62277 17.255C6.6465 16.9605 6.65837 16.6659 6.6821 16.3714C6.70584 16.0401 6.74144 15.7087 6.76518 15.3774C6.77705 15.1933 6.78892 14.9969 6.80078 14.8128C6.81265 14.5796 6.82452 14.3465 6.83639 14.1133C6.86012 13.7451 6.9076 13.3892 7.00254 13.0456C7.05001 12.8615 7.12122 12.6774 7.21616 12.5056C7.2755 12.3952 7.34671 12.297 7.42978 12.2111C7.59593 12.0393 7.79769 11.9534 8.03505 11.9411C8.16559 11.9288 8.29614 11.9779 8.41482 12.0515C8.48603 12.1006 8.55723 12.162 8.60471 12.2356C8.68778 12.3461 8.75899 12.4688 8.81833 12.6038C8.91327 12.8247 8.98448 13.0701 9.04382 13.3033C9.10316 13.5979 9.15063 13.8924 9.18623 14.1869C9.23371 14.6042 9.25744 15.0215 9.26931 15.4387C9.29304 15.9787 9.28118 16.5187 9.28118 17.0587C9.26931 17.3777 9.25744 17.6968 9.24557 18.0282C9.23371 18.335 9.20997 18.6295 9.1981 18.9363C9.18623 19.3045 9.1625 19.6727 9.15063 20.0408C9.13876 20.2127 9.13876 20.3845 9.12689 20.5563C9.12689 20.6545 9.12689 20.7404 9.12689 20.814ZM8.47416 19.6972C8.47416 19.55 8.47416 19.415 8.48603 19.2677C8.49789 18.9486 8.50976 18.6173 8.5335 18.2982C8.54537 18.1018 8.54537 17.9055 8.55723 17.7214C8.5691 17.5496 8.5691 17.3777 8.58097 17.2182C8.60471 16.715 8.59284 16.2119 8.59284 15.721C8.59284 15.6964 8.59284 15.6719 8.59284 15.6351C8.58097 15.4142 8.5691 15.2055 8.55723 14.9846C8.54537 14.8005 8.5335 14.6042 8.52163 14.4201C8.50976 14.1869 8.48603 13.966 8.45042 13.7329C8.42669 13.6101 8.41482 13.4997 8.37922 13.3892C8.36735 13.3401 8.34361 13.291 8.31988 13.2542C8.30801 13.2174 8.2724 13.1929 8.2368 13.1929C8.03505 13.1438 7.84516 13.1806 7.72648 13.3892C7.67901 13.4629 7.65527 13.5365 7.63154 13.6224C7.58407 13.7942 7.5722 13.9783 7.56033 14.1624C7.54846 14.4692 7.54846 14.7637 7.51286 15.0705C7.48912 15.2914 7.47725 15.5123 7.45352 15.7332C7.42978 16.0155 7.40605 16.2978 7.38231 16.5923C7.37044 16.6905 7.37044 16.7764 7.35858 16.8746C7.34671 17.12 7.32297 17.3655 7.3111 17.6109C7.29924 17.7459 7.29924 17.8809 7.28737 18.0159C7.2755 18.3473 7.25176 18.6786 7.2399 19.01C7.22803 19.2554 7.22803 19.5009 7.21616 19.7463C7.20429 20.1881 7.19242 20.6299 7.19242 21.0717C7.19242 21.894 7.18056 22.704 7.20429 23.5139C7.21616 23.7103 7.21616 23.9066 7.22803 24.103C7.22803 24.2135 7.2399 24.3239 7.25176 24.4466C7.26363 24.6184 7.2755 24.8025 7.28737 24.9743C7.3111 25.2443 7.32297 25.5143 7.34671 25.7843C7.35858 25.9929 7.39418 26.2138 7.44165 26.4225C7.47725 26.5943 7.52473 26.7538 7.6078 26.9134C7.61967 26.9379 7.63154 26.9625 7.63154 26.987C7.64341 27.0729 7.65527 27.1588 7.67901 27.2447C7.69088 27.2693 7.70275 27.3061 7.71461 27.3306C7.73835 27.3552 7.76208 27.3674 7.78582 27.3429C7.80956 27.3184 7.83329 27.3061 7.84516 27.2815C7.8689 27.2325 7.9045 27.1711 7.92824 27.122C7.95197 27.0729 7.96384 27.0361 7.99944 26.9993C8.09439 26.8888 8.15373 26.7538 8.17746 26.6066C8.18933 26.5329 8.18933 26.447 8.17746 26.3611C8.17746 26.312 8.17746 26.2629 8.18933 26.2138C8.2012 26.1034 8.22493 25.9929 8.2368 25.8825C8.29614 25.5143 8.33174 25.1339 8.36735 24.7657C8.39108 24.5203 8.40295 24.2625 8.41482 24.0171C8.42669 23.698 8.43855 23.3789 8.45042 23.0476C8.46229 22.7162 8.46229 22.3726 8.46229 22.0412C8.46229 21.2558 8.46229 20.4704 8.47416 19.6972Z" fill="#4E4200"/>
<path d="M4.80629 20.814C4.79442 21.1453 4.77068 21.4767 4.75881 21.808C4.74695 21.943 4.74695 22.078 4.73508 22.213C4.72321 22.3971 4.72321 22.5812 4.71134 22.7653C4.69947 23.0475 4.68761 23.3421 4.66387 23.6243C4.652 23.7471 4.652 23.8698 4.64013 24.0048C4.62827 24.1766 4.62827 24.3607 4.6164 24.5325C4.60453 24.8148 4.5808 25.097 4.56893 25.3793C4.55706 25.5634 4.55706 25.7475 4.55706 25.9316C4.55706 26.1402 4.55706 26.3488 4.54519 26.5452C4.54519 26.7538 4.52146 26.9624 4.47398 27.1711C4.45025 27.2938 4.41464 27.4042 4.36717 27.5147C4.34344 27.576 4.30783 27.6374 4.2841 27.6865C4.14168 27.9319 3.92806 28.0547 3.66697 28.116C3.54829 28.1406 3.42961 28.1406 3.31093 28.1038C3.18038 28.0669 3.07357 27.9933 2.96676 27.9074C2.88368 27.8215 2.81248 27.7233 2.74127 27.6251C2.63446 27.4411 2.55138 27.2324 2.48018 27.0238C2.3971 26.7538 2.33776 26.4838 2.29029 26.2138C2.24282 25.907 2.20721 25.6125 2.17161 25.3057C2.14787 25.1093 2.14787 24.9252 2.13601 24.7289C2.08853 23.8943 2.08853 23.0475 2.11227 22.213C2.11227 21.9553 2.12414 21.6976 2.13601 21.4399C2.13601 21.3662 2.13601 21.2926 2.13601 21.2312C2.13601 20.6422 2.14787 20.0654 2.17161 19.4763C2.18348 19.1204 2.20721 18.7645 2.21908 18.4086C2.23095 18.2613 2.23095 18.1141 2.24282 17.9668C2.25469 17.7213 2.27842 17.4759 2.29029 17.2304C2.30216 17.1323 2.30216 17.0464 2.31403 16.9482C2.33776 16.6659 2.34963 16.3836 2.37336 16.1137C2.3971 15.8682 2.40897 15.6105 2.4327 15.365C2.44457 15.2791 2.44457 15.181 2.45644 15.0828C2.46831 14.911 2.46831 14.7392 2.48018 14.5796C2.50391 14.1746 2.53952 13.7696 2.61072 13.3769C2.64633 13.1683 2.70567 12.9719 2.78874 12.7756C2.84808 12.616 2.93116 12.4688 3.03797 12.3338C3.18038 12.162 3.34653 12.0515 3.54829 12.0024C3.78565 11.9411 3.9874 12.0024 4.16542 12.162C4.24849 12.2356 4.3197 12.3338 4.37904 12.4319C4.47398 12.6038 4.55706 12.7878 4.60453 12.9842C4.68761 13.2419 4.73508 13.4996 4.78255 13.7696C4.83002 14.0274 4.85376 14.2973 4.87749 14.5551C4.88936 14.7514 4.90123 14.9355 4.9131 15.1319C4.93683 15.6473 4.9487 16.1505 4.9487 16.6659C4.93683 17.0709 4.92496 17.4759 4.9131 17.8931C4.90123 18.2613 4.87749 18.6418 4.86563 19.0099C4.85376 19.2799 4.84189 19.5622 4.83002 19.8322C4.84189 20.139 4.83002 20.4703 4.80629 20.814ZM4.16542 19.8199C4.16542 19.6604 4.17729 19.5131 4.17729 19.3536C4.17729 19.2554 4.17729 19.1572 4.18915 19.059C4.20102 18.8627 4.21289 18.654 4.21289 18.4577C4.22476 18.2859 4.22476 18.1141 4.23663 17.9422C4.24849 17.6477 4.26036 17.3654 4.27223 17.0709C4.27223 17.0095 4.27223 16.9604 4.27223 16.8991C4.2841 16.5555 4.2841 16.1996 4.27223 15.8559C4.26036 15.5859 4.24849 15.316 4.23663 15.0582C4.21289 14.7882 4.20102 14.5305 4.18915 14.2605C4.17729 14.0519 4.15355 13.8555 4.11795 13.6469C4.10608 13.5487 4.07048 13.4506 4.04674 13.3646C4.03487 13.3156 4.01114 13.2787 3.9874 13.2297C3.97553 13.2051 3.9518 13.1806 3.91619 13.1683C3.73817 13.1192 3.54829 13.1437 3.41774 13.3278C3.37027 13.4015 3.33467 13.4874 3.31093 13.5733C3.27533 13.7083 3.25159 13.8433 3.23972 13.9783C3.22785 14.1255 3.22785 14.2851 3.22785 14.4323C3.22785 14.6532 3.20412 14.8619 3.18038 15.0705C3.16851 15.23 3.14478 15.3896 3.13291 15.5369C3.12104 15.7087 3.10917 15.8805 3.09731 16.04C3.08544 16.2241 3.0617 16.4082 3.04984 16.5923C3.03797 16.8132 3.0261 17.0218 3.01423 17.2427C2.9905 17.5986 2.96676 17.9545 2.95489 18.3104C2.94302 18.5681 2.93116 18.8381 2.91929 19.0958C2.90742 19.5622 2.88368 20.0285 2.88368 20.4949C2.87182 21.1699 2.88368 21.8449 2.87182 22.5198C2.87182 23.0721 2.88368 23.6121 2.90742 24.1643C2.90742 24.2748 2.91929 24.3852 2.93116 24.508C2.94302 24.692 2.96676 24.8761 2.96676 25.0602C2.97863 25.3179 2.9905 25.5634 3.01423 25.8211C3.03797 26.0175 3.0617 26.2138 3.10918 26.4102C3.14478 26.5574 3.18038 26.7047 3.25159 26.8397C3.27533 26.8888 3.28719 26.9379 3.29906 26.9992C3.31093 27.0729 3.3228 27.1465 3.33467 27.2201C3.34653 27.2447 3.3584 27.2815 3.37027 27.2938C3.394 27.3306 3.42961 27.3306 3.45334 27.3061C3.47708 27.2815 3.50082 27.2692 3.51268 27.2447C3.53642 27.1956 3.56016 27.1465 3.58389 27.0974C3.60763 27.0483 3.63136 27.0115 3.6551 26.9747C3.80938 26.7906 3.86872 26.582 3.83312 26.3488C3.83312 26.312 3.83312 26.2752 3.83312 26.2384C3.92806 25.7229 3.9874 25.2075 4.023 24.6798C4.04674 24.4098 4.05861 24.1398 4.07048 23.8698C4.08234 23.4525 4.10608 23.0353 4.10608 22.618C4.15355 21.6853 4.15355 20.7526 4.16542 19.8199Z" fill="#4E4200"/>
<path d="M21.125 12.7387C21.125 12.9227 21.0063 13.07 20.8402 13.1068C20.7927 13.1191 20.7453 13.1314 20.6859 13.1191C20.5554 13.0946 20.4723 13.0086 20.4486 12.8859C20.4248 12.8 20.4129 12.7141 20.3892 12.6282C20.318 12.3091 20.2349 11.99 20.0925 11.6832C20.0213 11.5237 19.9382 11.3764 19.8552 11.2292C19.5703 10.7996 19.1906 10.5051 18.7158 10.3578C18.6921 10.3455 18.6684 10.3455 18.6446 10.3333C18.4903 10.2596 18.431 10.1124 18.4429 9.97737C18.4547 9.89147 18.4785 9.81783 18.5378 9.75647C18.6209 9.65829 18.7158 9.62147 18.8464 9.65829C19.0244 9.70738 19.1906 9.76874 19.3567 9.85465C19.7721 10.0633 20.1163 10.3701 20.3892 10.7628C20.5554 11.0083 20.6978 11.266 20.8046 11.5482C20.9589 11.9164 21.0538 12.3091 21.125 12.7018C21.125 12.7141 21.125 12.7387 21.125 12.7387Z" fill="#4E4200"/>
<path d="M17.47 10.407C17.2682 10.407 17.1496 10.2474 17.1377 10.0879C17.1377 10.0265 17.1377 9.95291 17.1614 9.89155C17.2208 9.73201 17.3632 9.67064 17.5056 9.68292C17.6836 9.69519 17.8023 9.83018 17.8142 10.0265C17.8142 10.0756 17.8142 10.1125 17.8023 10.1615C17.7667 10.3088 17.6362 10.407 17.47 10.407Z" fill="#4E4200"/>
</svg>
