<svg width="31" height="31" viewBox="0 0 31 31" fill="none" xmlns="http://www.w3.org/2000/svg">
<path d="M30.9999 2.77622C30.9879 2.78834 30.9879 2.78834 30.9879 2.80046C30.9879 2.88533 30.9279 2.95807 30.8678 3.00656C30.7957 3.07931 30.7117 3.15205 30.6396 3.22479C29.5586 4.26742 28.5017 5.33429 27.4687 6.41329C26.2316 7.71051 25.0065 9.03198 23.7814 10.3413C22.7725 11.4203 21.7516 12.4993 20.7186 13.5541C19.6737 14.621 18.6047 15.6757 17.4877 16.682C17.3796 16.779 17.2715 16.8881 17.1634 16.9851C17.0313 17.1063 16.9112 17.2396 16.7791 17.3609C16.731 17.3973 16.719 17.4457 16.719 17.5064C16.731 17.664 16.731 17.8216 16.731 17.9792C16.7551 19.822 16.7671 21.6648 16.7551 23.5197C16.7551 24.2713 16.7431 25.023 16.731 25.7747C16.731 25.908 16.719 26.0292 16.719 26.1626C16.719 26.199 16.719 26.2353 16.719 26.2717C16.7431 26.2717 16.7671 26.2838 16.7911 26.2838C16.9352 26.2838 17.0914 26.296 17.2355 26.296C17.5238 26.3081 17.812 26.3081 18.1003 26.3202C18.4486 26.3445 18.7969 26.3687 19.1452 26.393C19.3854 26.4172 19.6377 26.4293 19.8779 26.4657C20.2142 26.5142 20.5385 26.5506 20.8628 26.6112C21.2351 26.6718 21.5954 26.7567 21.9558 26.8536C22.3281 26.9628 22.7004 27.084 23.0487 27.2658C23.2289 27.3507 23.3851 27.4598 23.5412 27.5811C23.6613 27.6781 23.7694 27.7872 23.8535 27.9084C24.0817 28.2357 24.1177 28.5994 23.9976 28.9753C23.9496 29.1208 23.8655 29.242 23.7574 29.3632C23.6373 29.4845 23.5172 29.5815 23.373 29.6784C23.1208 29.8482 22.8446 29.9694 22.5563 30.0664C22.1359 30.224 21.7155 30.3331 21.2832 30.418C20.8388 30.515 20.3944 30.5877 19.9379 30.6483C19.6016 30.6968 19.2653 30.7453 18.929 30.7817C18.7008 30.8059 18.4726 30.8302 18.2444 30.8544C17.9441 30.8787 17.6439 30.9029 17.3436 30.9272C17.2235 30.9393 17.0914 30.9393 16.9713 30.9514C16.3827 30.9757 15.7942 30.9999 15.1937 30.9878C15.0735 30.9878 14.9414 30.9878 14.8213 30.9878C14.5331 30.9757 14.2448 30.9635 13.9685 30.9514C13.8004 30.9393 13.6202 30.9393 13.4521 30.9272C13.1999 30.915 12.9476 30.915 12.6834 30.9029C12.4071 30.8908 12.1309 30.8666 11.8546 30.8544C11.6625 30.8423 11.4823 30.8302 11.2901 30.8059C11.0619 30.7817 10.8337 30.7574 10.6175 30.7332C10.3773 30.6968 10.1251 30.6605 9.88486 30.6241C9.35638 30.5271 8.83991 30.4059 8.33546 30.2119C8.11926 30.127 7.90307 30.03 7.71089 29.8967C7.56676 29.7997 7.42263 29.7027 7.31454 29.5693C7.14638 29.3996 7.02628 29.1935 6.99024 28.951C6.91818 28.5752 7.00225 28.2236 7.23046 27.9205C7.33856 27.7629 7.48269 27.6417 7.63883 27.5204C7.89106 27.3386 8.17932 27.1931 8.46758 27.084C8.8279 26.9385 9.18823 26.8415 9.56056 26.7567C9.95692 26.6718 10.3653 26.5991 10.7737 26.5384C11.098 26.4899 11.4222 26.4657 11.7465 26.4293C12.0708 26.4051 12.4071 26.3808 12.7314 26.3687C13.2119 26.3445 13.6923 26.3323 14.1607 26.3323C14.1968 26.3323 14.2328 26.3323 14.2808 26.3323C14.2808 26.3081 14.2928 26.2838 14.2928 26.2717C14.2928 26.2596 14.2928 26.2475 14.2928 26.2353C14.3049 25.8231 14.3049 25.4231 14.3169 25.0109C14.3409 23.3014 14.3409 21.6041 14.3289 19.8947C14.3289 19.3734 14.3169 18.8521 14.3049 18.3308C14.3049 18.0277 14.2928 17.7367 14.2928 17.4336C14.2928 17.4094 14.2928 17.3851 14.2928 17.3609C14.2808 17.3488 14.2688 17.3366 14.2568 17.3245C13.8965 16.9972 13.5722 16.6456 13.2599 16.2698C13.0317 16.003 12.8035 15.7363 12.5873 15.4696C12.3831 15.2271 12.1549 15.0089 11.9387 14.7907C11.3982 14.2451 10.8577 13.6996 10.3172 13.154C9.29633 12.1235 8.25138 11.1172 7.20644 10.0989C5.81318 8.80164 4.47998 7.50441 3.17079 6.18294C2.14987 5.15244 1.15297 4.12193 0.168081 3.05506C0.120038 3.00656 0.084005 2.95807 0.0599833 2.90958C-0.108169 2.61861 0.0840051 2.27915 0.420309 2.26703C0.444331 2.26703 0.456341 2.26703 0.480363 2.26703C2.55824 2.26703 4.63612 2.2549 6.71399 2.2549C7.9391 2.2549 9.1522 2.24278 10.3773 2.23066C11.5183 2.21853 12.6594 2.21853 13.8004 2.20641C15.3618 2.19428 16.9352 2.19428 18.4966 2.18216C19.4095 2.18216 20.3103 2.18216 21.2231 2.18216C21.9197 2.18216 22.6164 2.18216 23.313 2.18216C23.4451 2.18216 23.4211 2.19428 23.5052 2.08517C23.9856 1.46687 24.454 0.848567 24.9345 0.230265C25.0185 0.121152 25.1266 0.0241637 25.2708 -8.34512e-05C25.2828 -8.34512e-05 25.2828 -0.012207 25.2948 -0.012207C25.3188 -0.012207 25.3308 -0.012207 25.3548 -0.012207C25.3789 -8.34512e-05 25.4029 0.0120401 25.4269 0.0120401C25.535 0.0362873 25.6311 0.0847816 25.6911 0.18177C25.7752 0.290882 25.7992 0.412118 25.7272 0.545478C25.7031 0.581848 25.6791 0.618219 25.6551 0.65459C25.4269 0.957679 25.1987 1.26077 24.9705 1.55173C24.8264 1.73359 24.6822 1.91544 24.5501 2.08517C24.5261 2.10942 24.5021 2.13367 24.5141 2.17004C24.5501 2.18216 24.5861 2.18216 24.6222 2.18216C25.0666 2.18216 25.511 2.19428 25.9674 2.19428C26.7721 2.20641 27.5889 2.20641 28.3936 2.21853C29.1022 2.23066 29.7988 2.24278 30.5075 2.24278C30.5315 2.24278 30.5555 2.24278 30.5796 2.24278C30.7837 2.2549 30.9279 2.40039 30.9639 2.59436C30.9639 2.60649 30.9759 2.61861 30.9879 2.63073C30.9999 2.69135 30.9999 2.72772 30.9999 2.77622ZM4.504 6.42541C4.52802 6.46178 4.55204 6.48603 4.57606 6.51028C4.91237 6.84974 5.26068 7.20132 5.59698 7.54078C6.43774 8.37731 7.29051 9.18959 8.16731 9.9655C8.69578 10.4383 9.18823 10.9233 9.68067 11.4203C10.1611 11.9174 10.6415 12.4145 11.122 12.8994C11.5063 13.2874 11.8787 13.6753 12.251 14.0754C12.4552 14.3057 12.6594 14.5361 12.8756 14.7543C13.1878 15.0816 13.5001 15.409 13.8484 15.7C14.0887 15.9061 14.3409 16.1 14.6051 16.2576C14.7973 16.3668 14.9895 16.4637 15.1937 16.5244C15.3498 16.5729 15.5179 16.5971 15.6861 16.5971C15.8903 16.585 16.0825 16.5365 16.2746 16.4395C16.4428 16.3668 16.5869 16.2698 16.731 16.1607C16.9112 16.0273 17.0794 15.8818 17.2475 15.7242C18.0883 14.9604 18.905 14.1603 19.6977 13.3601C20.6946 12.3538 21.6675 11.3355 22.6284 10.305C23.6733 9.18959 24.7183 8.0621 25.7632 6.94673C25.9193 6.777 26.0755 6.61939 26.2316 6.46178C26.2436 6.44966 26.2677 6.43754 26.2677 6.40117C26.2556 6.40117 26.2436 6.40117 26.2316 6.40117C25.7992 6.42541 25.3789 6.44966 24.9465 6.47391C24.5501 6.48603 24.1658 6.51028 23.7694 6.51028C23.337 6.5224 22.8926 6.53453 22.4602 6.53453C22.0158 6.53453 21.5834 6.53453 21.139 6.54665C21.115 6.54665 21.079 6.54665 21.0549 6.54665C21.0189 6.54665 20.9949 6.55877 20.9709 6.58302C20.9589 6.59514 20.9589 6.60727 20.9468 6.61939C20.4184 7.29831 19.8899 7.98936 19.3734 8.66828C19.3494 8.69252 19.3374 8.71677 19.3134 8.75314C19.3374 8.77739 19.3734 8.80164 19.3975 8.82588C19.6497 9.01986 19.8419 9.26233 19.986 9.54117C20.2262 10.014 20.2863 10.5111 20.2142 11.0324C20.1301 11.5416 19.9139 11.9901 19.5776 12.3781C18.9891 13.057 18.0282 13.4571 17.1034 13.3359C16.8512 13.2995 16.5989 13.2389 16.3707 13.1176C16.3467 13.1055 16.3227 13.1055 16.2987 13.0934C16.2746 13.1176 16.2626 13.1419 16.2386 13.154C16.1065 13.3237 15.9864 13.4935 15.8542 13.6632C15.614 13.9784 15.3738 14.2936 15.1576 14.621C15.1456 14.6452 15.1216 14.6694 15.1096 14.6816C15.0495 14.7422 14.9895 14.7786 14.9054 14.8028C14.7493 14.8271 14.6171 14.7907 14.497 14.6937C14.3529 14.5603 14.3169 14.3906 14.4129 14.2209C14.437 14.1724 14.473 14.1239 14.509 14.0754C14.7132 13.7723 14.9294 13.4813 15.1576 13.1904C15.2897 13.0206 15.4219 12.8388 15.542 12.6691C15.554 12.6448 15.59 12.6206 15.578 12.5721C15.554 12.5599 15.53 12.5236 15.4939 12.4993C15.2177 12.2205 15.0015 11.9174 14.8453 11.5537C14.7132 11.2506 14.6412 10.9233 14.6412 10.5959C14.6412 10.2443 14.7132 9.917 14.8814 9.60179C15.0735 9.22596 15.3498 8.92287 15.6861 8.6804C16.1065 8.36519 16.5869 8.17121 17.1034 8.09847C17.3196 8.07422 17.5478 8.0621 17.764 8.08634C18.0162 8.11059 18.2684 8.18333 18.4966 8.29245C18.5207 8.30457 18.5447 8.31669 18.5687 8.31669C18.5927 8.28032 18.6167 8.25607 18.6408 8.23183C18.857 7.94086 19.0852 7.6499 19.3014 7.35893C19.4815 7.11646 19.6737 6.87399 19.8659 6.63152C19.8779 6.60727 19.9139 6.59514 19.9019 6.54665C19.8779 6.54665 19.8539 6.53453 19.8298 6.53453C19.6857 6.53453 19.5296 6.5224 19.3854 6.5224C18.929 6.51028 18.4606 6.51028 18.0042 6.49816C17.3676 6.48603 16.731 6.47391 16.0945 6.44966C15.566 6.43754 15.0495 6.42541 14.521 6.41329C13.9445 6.40117 13.356 6.38904 12.7795 6.3648C12.4792 6.35267 12.1909 6.35267 11.8907 6.34055C11.4222 6.32843 10.9658 6.3163 10.4974 6.3163C9.90888 6.3163 9.33236 6.30418 8.74383 6.30418C7.67486 6.30418 6.6059 6.30418 5.53693 6.35267C5.23666 6.3648 4.92438 6.37692 4.62411 6.37692C4.60008 6.37692 4.56405 6.37692 4.54003 6.37692C4.52802 6.41329 4.51601 6.41329 4.504 6.42541ZM22.7365 3.04294C22.6884 3.04294 22.6524 3.04294 22.6164 3.04294C19.8178 3.04294 17.0193 3.04294 14.2088 3.06718C12.9837 3.07931 11.7706 3.07931 10.5455 3.09143C9.27231 3.10355 7.99916 3.10355 6.726 3.11568C5.18862 3.11568 3.63922 3.1278 2.10183 3.1278C1.88563 3.1278 1.66944 3.1278 1.46525 3.1278C1.44123 3.1278 1.41721 3.11568 1.39319 3.15205C1.4052 3.17629 1.42922 3.20054 1.45324 3.22479C2.17389 4.0007 2.90655 4.77661 3.63922 5.55252C3.65123 5.56464 3.66324 5.57676 3.68726 5.60101C3.69927 5.62526 3.72329 5.62526 3.74731 5.62526C3.77134 5.62526 3.79536 5.62526 3.81938 5.62526C4.0596 5.61313 4.29981 5.60101 4.54003 5.58889C4.92438 5.57676 5.30872 5.56464 5.69307 5.55252C5.95731 5.54039 6.23356 5.54039 6.4978 5.52827C7.29051 5.51615 8.09524 5.50402 8.88796 5.51615C10.077 5.51615 11.2541 5.52827 12.4432 5.56464C12.7074 5.57676 12.9837 5.57676 13.2479 5.58889C13.8244 5.60101 14.4009 5.61313 14.9654 5.63738C15.2177 5.6495 15.4579 5.6495 15.7101 5.66163C16.3347 5.67375 16.9472 5.68588 17.5718 5.71012C17.8841 5.72225 18.1964 5.72225 18.5086 5.72225C19.1813 5.73437 19.8419 5.73437 20.5145 5.74649C20.6346 5.74649 20.6226 5.75862 20.6946 5.66163C20.9829 5.29792 21.2832 4.93421 21.5714 4.57051C21.9438 4.10981 22.3041 3.66124 22.6764 3.20054C22.6884 3.11568 22.7245 3.09143 22.7365 3.04294ZM16.683 27.1446C16.683 27.1931 16.683 27.2295 16.683 27.2658C16.683 27.4962 16.683 27.7265 16.683 27.969C16.683 28.0539 16.683 28.1387 16.671 28.2236C16.659 28.3448 16.5989 28.4297 16.5028 28.4903C16.3587 28.5873 16.2026 28.5873 16.0464 28.5146C15.9263 28.454 15.8663 28.357 15.8542 28.2236C15.8542 28.1872 15.8542 28.1387 15.8542 28.1024C15.8663 27.6538 15.8783 27.2174 15.8783 26.7688C15.8783 26.5506 15.8903 26.3323 15.8903 26.1262C15.9023 25.3746 15.9143 24.6229 15.9143 23.8712C15.9263 22.3437 15.9143 20.804 15.9023 19.2764C15.9023 18.8642 15.8903 18.4641 15.8783 18.0519C15.8783 18.0277 15.8903 17.9913 15.8663 17.9671C15.7822 17.9792 15.6981 17.9913 15.614 18.0156C15.53 18.0277 15.4459 18.0156 15.3738 18.0034C15.2897 17.9913 15.2057 17.9549 15.1216 17.9428C15.0976 17.9792 15.1096 18.0277 15.1096 18.0641C15.1216 18.5126 15.1216 18.9612 15.1336 19.4098C15.1456 20.6827 15.1456 21.9557 15.1456 23.2287C15.1456 24.7684 15.1216 26.3081 15.0976 27.8478C15.0976 27.969 15.0976 28.1024 15.0856 28.2236C15.0735 28.3812 14.9895 28.4903 14.8453 28.5631C14.7733 28.5994 14.6892 28.6116 14.6051 28.5994C14.425 28.5752 14.2808 28.4661 14.2568 28.2479C14.2568 28.2115 14.2568 28.1872 14.2568 28.1509C14.2568 27.872 14.2688 27.5932 14.2688 27.3143C14.2688 27.2901 14.2688 27.2659 14.2568 27.2295C14.2208 27.2295 14.1968 27.2174 14.1607 27.2174C13.8364 27.2295 13.5001 27.2295 13.1758 27.2416C13.0437 27.2416 12.9116 27.2537 12.7795 27.2658C12.5633 27.278 12.3351 27.3022 12.1189 27.3143C11.9027 27.3386 11.6745 27.3507 11.4583 27.3871C11.17 27.4235 10.8697 27.472 10.5815 27.5204C10.1971 27.5932 9.81279 27.6781 9.44046 27.7993C9.17622 27.8842 8.91198 27.9811 8.65975 28.1145C8.55165 28.1751 8.44356 28.2357 8.34747 28.3206C8.2754 28.3812 8.21535 28.4418 8.16731 28.5267C8.09524 28.6479 8.09524 28.7813 8.1553 28.9025C8.17932 28.951 8.20334 28.9874 8.23937 29.0238C8.29943 29.0844 8.35948 29.145 8.43155 29.1935C8.53964 29.2784 8.67176 29.3511 8.79187 29.4117C9.03209 29.533 9.28432 29.6299 9.53654 29.7027C10.041 29.8482 10.5575 29.933 11.0859 29.9937C11.3982 30.03 11.7225 30.0543 12.0468 30.0785C12.3591 30.1028 12.6834 30.1149 12.9957 30.127C13.4521 30.1391 13.9085 30.1634 14.3649 30.1876C14.8333 30.2119 15.3018 30.224 15.7822 30.2361C16.3827 30.2482 16.9833 30.2361 17.5838 30.1998C17.8481 30.1876 18.1003 30.1755 18.3645 30.1513C18.7008 30.127 19.0371 30.0785 19.3734 30.03C19.7217 29.9815 20.058 29.9209 20.3944 29.8482C20.8868 29.7512 21.3552 29.6057 21.8357 29.4602C21.9197 29.436 22.0038 29.4117 22.0759 29.3754C22.22 29.3147 22.3641 29.2541 22.4963 29.1693C22.5683 29.1208 22.6404 29.0601 22.7004 28.9874C22.8085 28.854 22.8446 28.6964 22.7965 28.5267C22.7725 28.4176 22.7245 28.3206 22.6644 28.2357C22.6164 28.163 22.5563 28.1024 22.4842 28.0539C22.4122 28.0175 22.3281 27.969 22.256 27.9448C22.0759 27.872 21.8717 27.8235 21.6795 27.775C21.4513 27.7265 21.2231 27.6781 21.0069 27.6296C20.5985 27.5447 20.2022 27.4598 19.7938 27.3992C19.4695 27.3507 19.1572 27.3143 18.8329 27.2901C18.4966 27.2659 18.1723 27.2295 17.836 27.2174C17.4877 27.2052 17.1514 27.1931 16.8031 27.181C16.7551 27.1325 16.719 27.1325 16.683 27.1446ZM21.7276 5.66163C21.7396 5.67375 21.7396 5.67375 21.7396 5.67375C21.7636 5.67375 21.7996 5.67375 21.8236 5.67375C22.4002 5.66163 22.9767 5.66163 23.5532 5.6495C23.9856 5.63738 24.418 5.62526 24.8384 5.61313C25.2828 5.60101 25.7152 5.57676 26.1596 5.55252C26.4358 5.54039 26.7121 5.51615 26.9883 5.50402C27.0484 5.50402 27.0964 5.4919 27.1565 5.4919C27.1805 5.4919 27.2045 5.47977 27.2165 5.46765C27.2285 5.45553 27.2405 5.4434 27.2646 5.41916C27.8651 4.80085 28.4656 4.18255 29.0902 3.57637C29.2343 3.43089 29.3785 3.29753 29.5226 3.15205C29.5346 3.13992 29.5586 3.1278 29.5346 3.09143C29.5106 3.09143 29.4746 3.09143 29.4505 3.09143C28.874 3.07931 28.2855 3.07931 27.709 3.06718C27.2766 3.06718 26.8562 3.05506 26.4238 3.05506C25.6071 3.05506 24.7903 3.04294 23.9616 3.04294C23.8295 3.04294 23.8655 3.03081 23.7694 3.13992C23.4451 3.54 23.1328 3.92796 22.8085 4.32803C22.4722 4.74024 22.1359 5.16456 21.7996 5.57676C21.7636 5.60101 21.7276 5.62526 21.7276 5.66163ZM18.0402 9.01986C18.0282 9.00774 18.0162 9.00774 18.0042 8.99561C17.9802 8.98349 17.9441 8.97137 17.9201 8.95924C17.6679 8.8865 17.4157 8.87438 17.1634 8.92287C16.731 8.99561 16.3467 9.18959 16.0224 9.48056C15.8422 9.63816 15.6981 9.83214 15.602 10.0504C15.5179 10.2443 15.4699 10.4504 15.4939 10.6565C15.5059 10.8263 15.554 10.996 15.614 11.1536C15.8422 11.6749 16.2146 12.0508 16.707 12.3175C16.9112 12.4266 17.1394 12.4751 17.3676 12.4872C17.6439 12.4993 17.9201 12.4387 18.1603 12.3054C18.6768 12.0508 19.0371 11.6386 19.2653 11.1172C19.3734 10.8626 19.4335 10.5838 19.3975 10.305C19.3734 10.0382 19.2773 9.80789 19.0852 9.61392C19.0011 9.52905 18.905 9.44419 18.7969 9.39569C18.7729 9.41994 18.7609 9.43206 18.7489 9.45631C18.7008 9.51693 18.6528 9.58967 18.6047 9.65029C18.3765 9.90488 18.0042 9.80789 17.8721 9.58967C17.812 9.49268 17.8 9.38357 17.8481 9.28658C17.8721 9.23808 17.8961 9.20171 17.9201 9.16534C17.9802 9.10472 18.0162 9.06835 18.0402 9.01986Z" fill="#EE30FF"/>
<path d="M9.96924 9.89279C9.95723 10.0625 9.87315 10.208 9.69299 10.2929C9.56087 10.3535 9.44076 10.3292 9.33267 10.2444C9.29663 10.2201 9.27261 10.1838 9.24859 10.1474C8.8162 9.61394 8.3718 9.10475 7.89136 8.61981C7.73522 8.4622 7.56707 8.3046 7.39892 8.13487C7.3749 8.11062 7.33886 8.08637 7.31484 8.05C7.23077 7.95301 7.20674 7.8439 7.24278 7.72266C7.29082 7.52869 7.49501 7.35896 7.72321 7.39533C7.79528 7.40745 7.85533 7.4317 7.91539 7.48019C7.93941 7.50444 7.97544 7.52869 7.99946 7.55293C8.64805 8.17124 9.24859 8.82591 9.8131 9.51695C9.83712 9.55333 9.86114 9.57757 9.88517 9.61394C9.94522 9.69881 9.96924 9.78367 9.96924 9.89279Z" fill="#EE30FF"/>
<path d="M10.5459 11.2627C10.3177 11.2627 10.1615 11.1172 10.1375 10.8989C10.1255 10.8262 10.1375 10.7413 10.1615 10.6686C10.2216 10.511 10.3657 10.4019 10.5699 10.414C10.8221 10.4383 10.9903 10.6686 10.9302 10.9232C10.8942 11.0687 10.8221 11.1899 10.666 11.2384C10.63 11.2505 10.5819 11.2505 10.5459 11.2627Z" fill="#EE30FF"/>
</svg>
