<svg width="29" height="31" viewBox="0 0 29 31" fill="none" xmlns="http://www.w3.org/2000/svg">
<path d="M14.3338 31C14.2982 31 14.2626 30.9882 14.227 30.9882C13.4788 30.9647 12.7188 30.953 11.9706 30.9647C11.2818 30.9647 10.5931 30.9882 9.90428 30.9647C9.69052 30.953 9.46488 30.9412 9.25113 30.9295C9.13237 30.9177 9.01361 30.9177 8.89486 30.9059C8.75235 30.8942 8.59797 30.8824 8.45547 30.8589C8.27733 30.8354 8.08732 30.8119 7.90919 30.7767C7.41042 30.6827 6.92352 30.5534 6.46038 30.3301C6.11599 30.1774 5.80723 29.9776 5.53409 29.7191C5.27283 29.4723 5.07094 29.202 4.91656 28.8847C4.90469 28.8612 4.89281 28.8377 4.88094 28.8025C4.85718 28.7907 4.83343 28.7907 4.80968 28.7907C4.67905 28.779 4.54842 28.7672 4.40592 28.7437C4.21591 28.7202 4.03778 28.6967 3.84777 28.6732C3.66963 28.6497 3.47963 28.6262 3.30149 28.5909C2.68397 28.4852 2.07831 28.3442 1.50829 28.1091C1.27078 28.0151 1.03327 27.8976 0.81951 27.7683C0.665129 27.6743 0.522622 27.5568 0.391992 27.4276C0.23761 27.263 0.118855 27.0868 0.0594774 26.8752C-0.0117757 26.6167 9.98601e-05 26.3464 0.095104 26.0997C0.166357 25.8764 0.296988 25.6884 0.451369 25.5121C0.641378 25.3006 0.867012 25.136 1.1164 24.9833C1.43704 24.7953 1.78143 24.6425 2.13769 24.5132C2.56521 24.3605 3.01648 24.2429 3.45587 24.1372C3.75276 24.0667 4.06153 24.0197 4.35841 23.9727C4.57217 23.9374 4.78593 23.9139 4.99969 23.8904C5.05907 23.8787 5.11845 23.8787 5.1897 23.8669C5.22533 23.8669 5.24908 23.8552 5.29658 23.8434C5.2847 23.8199 5.27283 23.7964 5.24908 23.7846C5.11845 23.6436 4.98782 23.5144 4.85719 23.3733C4.14465 22.5978 3.57463 21.7164 3.12336 20.7646C2.75522 19.9655 2.45833 19.1429 2.24457 18.2968C2.11394 17.7915 2.00706 17.2744 1.91206 16.7574C1.86456 16.4753 1.82893 16.1815 1.78143 15.8995C1.7458 15.6292 1.72205 15.3707 1.68642 15.1004C1.66267 14.9124 1.6508 14.7361 1.63892 14.5481C1.62705 14.3483 1.60329 14.1486 1.59142 13.937C1.56767 13.5962 1.55579 13.2555 1.59142 12.9147C1.60329 12.7619 1.63892 12.5974 1.68642 12.4446C1.80518 12.0568 2.05456 11.7748 2.4227 11.5985C2.61271 11.5045 2.80272 11.4458 3.0046 11.4105C3.21836 11.3635 3.444 11.34 3.66963 11.3282C3.78839 11.3165 3.90714 11.3047 4.0259 11.293C4.1209 11.2812 4.21591 11.2812 4.32279 11.2695C4.45342 11.2577 4.58405 11.2577 4.71468 11.246C4.85719 11.2342 4.98782 11.2225 5.11845 11.2107C5.22533 11.199 5.33221 11.199 5.43909 11.1872C5.59347 11.1755 5.75972 11.1755 5.91411 11.1637C6.10411 11.152 6.29412 11.1402 6.48413 11.1285C6.49601 11.1285 6.51976 11.1285 6.53163 11.1285C6.74539 11.1167 6.95915 11.1167 7.17291 11.105C7.43417 11.0932 7.68356 11.0815 7.94482 11.0697C7.98044 11.0697 8.01607 11.0697 8.0517 11.0697C8.43172 11.058 8.82361 11.058 9.20362 11.0462C10.118 11.0227 11.0325 11.0227 11.9587 11.0227C12.6 11.0227 13.2413 11.0345 13.8826 11.0345C14.2863 11.0345 14.6782 11.0462 15.082 11.058C15.367 11.058 15.652 11.0697 15.937 11.0815C16.4358 11.0932 16.9346 11.105 17.4334 11.1167C17.849 11.1285 18.2646 11.1402 18.6803 11.152C19.0841 11.1637 19.4878 11.1755 19.8916 11.1872C20.2597 11.199 20.6279 11.2107 20.996 11.2225C21.376 11.2342 21.7679 11.246 22.1479 11.2577C22.4923 11.2695 22.8367 11.293 23.1811 11.293C23.5374 11.293 23.8461 11.4105 24.1193 11.622C24.3568 11.7983 24.5349 12.0333 24.6537 12.3036C24.7487 12.5269 24.808 12.7501 24.8437 12.9852C24.8674 13.1614 24.8912 13.3495 24.8912 13.5375C24.8912 13.561 24.8912 13.5845 24.9031 13.6197C24.9031 13.6197 24.9149 13.6315 24.9149 13.6432C24.9387 13.6315 24.9506 13.6315 24.9743 13.6197C25.1999 13.514 25.4375 13.4317 25.6868 13.3965C25.9006 13.3612 26.1144 13.3612 26.3281 13.3847C26.8744 13.4435 27.3494 13.655 27.7769 13.984C28.0976 14.2191 28.347 14.5364 28.537 14.8889C28.7151 15.2179 28.8338 15.5822 28.9051 15.9465C28.9407 16.0993 28.9526 16.2403 28.9764 16.3931C28.9882 16.4401 28.9764 16.4871 28.9882 16.5341C28.9882 16.5693 28.9882 16.6046 29.012 16.6281C29.012 16.9454 29.012 17.2627 29.012 17.5799C28.9882 17.6034 28.9882 17.6387 28.9882 17.674C28.9882 17.721 28.9882 17.768 28.9764 17.815C28.9289 18.191 28.8338 18.5671 28.6913 18.9196C28.4657 19.4837 28.1451 20.0007 27.7413 20.459C27.2782 20.9878 26.7556 21.4344 26.1619 21.8104C25.4137 22.304 24.6062 22.6683 23.7511 22.962C23.2642 23.1266 22.7773 23.2558 22.2786 23.3498C22.1004 23.3851 21.9104 23.4086 21.7323 23.4321C21.6017 23.4556 21.471 23.4674 21.3404 23.4791C21.2098 23.4909 21.091 23.5026 20.9604 23.5026C20.9248 23.5026 20.901 23.4909 20.8654 23.4909C20.8416 23.4909 20.8179 23.4909 20.7941 23.4791C20.7347 23.5379 20.6754 23.5966 20.6279 23.6554C20.5091 23.7729 20.4022 23.8787 20.2835 23.9962C20.2716 24.0079 20.2479 24.0197 20.2597 24.0549C20.2716 24.0549 20.2954 24.0549 20.3072 24.0667C20.4379 24.0784 20.5566 24.0902 20.6872 24.1137C20.8535 24.1372 21.0198 24.1607 21.186 24.1842C21.4116 24.2194 21.6373 24.2429 21.8629 24.29C22.1836 24.3487 22.5042 24.4075 22.8248 24.478C23.3236 24.5837 23.8105 24.713 24.2974 24.8658C24.6655 24.9833 25.0218 25.1243 25.3662 25.3123C25.5562 25.4181 25.7343 25.5238 25.8887 25.6649C25.9956 25.7589 26.0906 25.8646 26.1737 25.9821C26.2806 26.1467 26.34 26.3229 26.3162 26.511C26.3044 26.6285 26.2806 26.7342 26.2331 26.8517C26.1619 27.0163 26.055 27.1573 25.9362 27.2748C25.8056 27.4041 25.6631 27.5098 25.5087 27.6156C25.2949 27.7448 25.0693 27.8506 24.8318 27.9446C24.2618 28.1561 23.6799 28.2854 23.0861 28.3912C22.908 28.4264 22.718 28.4499 22.5398 28.4734C22.3498 28.4969 22.1598 28.5204 21.9698 28.5439C21.8629 28.5557 21.7442 28.5674 21.6373 28.5909C21.5898 28.6497 21.5542 28.6967 21.5067 28.7555C21.3048 29.0257 21.1029 29.2843 20.8891 29.5428C20.711 29.7426 20.521 29.9423 20.2954 30.1069C19.951 30.3771 19.5709 30.5534 19.1434 30.6474C18.9178 30.6944 18.6803 30.7414 18.4546 30.7767C18.2884 30.8002 18.134 30.8237 17.9678 30.8354C17.8371 30.8472 17.7065 30.8707 17.5759 30.8824C17.4571 30.8942 17.3502 30.9059 17.2315 30.9177C17.1008 30.9294 16.9821 30.9412 16.8515 30.9412C16.6614 30.9529 16.4833 30.9647 16.2933 30.9765C16.0439 30.9882 15.7945 31 15.5451 31C15.5095 31 15.4858 31.0117 15.4501 31.0117C15.082 31 14.702 31 14.3338 31ZM13.7044 11.9628C13.2294 11.9628 12.885 11.9746 12.5406 11.9746C11.7687 11.9863 10.985 11.9863 10.213 11.9981C9.46488 12.0098 8.71673 12.0216 7.96857 12.0216C7.92107 12.0216 7.88544 12.0216 7.83794 12.0216C7.38667 12.0333 6.92352 12.0451 6.47226 12.0568C6.04474 12.0686 5.61722 12.0686 5.1897 12.0803C5.15407 12.0803 5.13032 12.0803 5.0947 12.0803C5.01157 12.0803 4.92844 12.0803 4.84531 12.0803C4.6078 12.0803 4.37029 12.0686 4.13278 12.0686C3.91902 12.0686 3.71714 12.0921 3.51525 12.1273C3.32524 12.1626 3.13524 12.2213 2.96898 12.3271C2.62459 12.5386 2.43458 12.8677 2.36333 13.2437C2.31582 13.4435 2.33958 13.6433 2.35145 13.8548C2.36333 14.0545 2.39895 14.2543 2.4227 14.4658C2.44646 14.7126 2.47021 14.9711 2.50583 15.2179C2.54146 15.547 2.58896 15.8878 2.63646 16.2168C2.69584 16.6046 2.76709 16.9806 2.83835 17.3567C2.98085 18.0382 3.17086 18.7198 3.40837 19.3779C3.70526 20.177 4.06153 20.9526 4.52467 21.6812C4.96406 22.3627 5.47471 22.9973 6.06849 23.5496C6.76914 24.1959 7.55293 24.7012 8.41984 25.1008C9.07299 25.4063 9.73802 25.6296 10.4387 25.7941C10.8306 25.8881 11.2343 25.9586 11.6262 26.0056C11.7925 26.0291 11.9587 26.0409 12.1369 26.0526C12.3625 26.0644 12.5881 26.0762 12.8257 26.0879C13.2888 26.0997 13.7519 26.0762 14.227 26.0174C14.4882 25.9821 14.7376 25.9469 14.987 25.8999C15.5214 25.7941 16.0558 25.6531 16.5664 25.4651C17.849 24.995 18.9772 24.29 19.9272 23.3028C20.4735 22.7388 20.9485 22.1277 21.376 21.4696C21.9104 20.647 22.3498 19.7774 22.7061 18.8726C23.1098 17.8737 23.4305 16.8514 23.6917 15.8055C23.8224 15.3002 23.9174 14.7831 23.9768 14.2543C24.0124 13.9605 24.0243 13.6785 24.0124 13.3847C24.0005 13.2085 23.9768 13.0322 23.9411 12.8677C23.9055 12.7149 23.8461 12.5621 23.7511 12.4211C23.6561 12.2801 23.5255 12.1743 23.3592 12.1156C23.3117 12.0921 23.2524 12.0803 23.193 12.0803C22.9792 12.0803 22.7655 12.0686 22.5517 12.0568C22.1954 12.0451 21.8392 12.0451 21.4829 12.0333C21.4354 12.0333 21.3998 12.0333 21.3523 12.0333C20.9604 12.0216 20.5804 12.0098 20.1885 11.9981C19.8678 11.9863 19.5353 11.9863 19.2147 11.9746C18.6922 11.9628 18.1578 11.9628 17.6352 11.9511C17.0652 11.9511 16.4952 11.9393 15.937 11.9393C15.1295 11.9746 14.3576 11.9628 13.7044 11.9628ZM19.3691 24.7718C19.3572 24.7718 19.3572 24.7835 19.3453 24.7835C19.3097 24.807 19.2741 24.8423 19.2384 24.8658C18.5497 25.3828 17.8015 25.7941 16.994 26.1114C16.4358 26.3347 15.8658 26.4992 15.2839 26.6167C14.9989 26.6755 14.7257 26.7225 14.4407 26.7577C14.2745 26.7812 14.0963 26.793 13.9301 26.8047C13.6807 26.8165 13.4432 26.8282 13.1938 26.84C12.7544 26.84 12.3031 26.8165 11.8637 26.7695C11.6025 26.746 11.3293 26.7107 11.0681 26.6637C10.6524 26.5932 10.2487 26.511 9.83302 26.3934C8.50297 26.0291 7.27979 25.4533 6.17537 24.619C6.13974 24.5837 6.09224 24.572 6.04474 24.572C5.78348 24.5955 5.52221 24.6072 5.26095 24.6425C5.03532 24.6777 4.80968 24.713 4.58405 24.7483C4.22778 24.8188 3.85964 24.901 3.50338 24.995C3.11148 25.1008 2.71959 25.2066 2.33958 25.3476C2.09019 25.4416 1.8408 25.5473 1.61517 25.6766C1.49641 25.7471 1.38954 25.8176 1.28266 25.8999C1.2114 25.9704 1.14015 26.0409 1.09265 26.1232C0.997643 26.2877 0.985767 26.4522 1.05702 26.6285C1.09265 26.699 1.12827 26.7695 1.17578 26.84C1.24703 26.9222 1.31828 27.0045 1.40141 27.075C1.62705 27.263 1.87643 27.4276 2.14957 27.5451C2.55334 27.7213 2.98085 27.8389 3.42025 27.9094C3.56275 27.9329 3.71714 27.9564 3.85964 27.9799C4.01402 28.0034 4.16841 28.0151 4.32279 28.0269C4.45342 28.0386 4.58405 28.0504 4.72655 28.0504C5.01157 28.0621 5.2847 28.0856 5.56972 28.0856C6.38913 28.0974 7.20854 28.1091 8.03982 28.1444C8.43171 28.1679 8.83548 28.1679 9.22737 28.1796C9.70239 28.1914 10.1774 28.2031 10.6524 28.2149C10.9493 28.2266 11.2343 28.2266 11.5312 28.2384C11.8875 28.2501 12.2556 28.2501 12.6119 28.2619C13.1463 28.2736 13.6807 28.2736 14.2032 28.2736C14.7851 28.2736 15.367 28.2736 15.9489 28.2619C16.2933 28.2619 16.6377 28.2501 16.9821 28.2384C17.0058 28.2384 17.0296 28.2384 17.0533 28.2384C17.2671 28.2266 17.4927 28.2149 17.7065 28.2031C17.8727 28.1914 18.0271 28.1914 18.1934 28.1796C18.2765 28.1796 18.3596 28.1679 18.4428 28.1679C18.5497 28.1561 18.6684 28.1561 18.7753 28.1444C18.894 28.1326 19.0128 28.1209 19.1316 28.1091C19.2978 28.0974 19.4759 28.0856 19.6422 28.0621C19.7966 28.0504 19.9391 28.0269 20.0935 28.0151C20.2716 27.9916 20.4616 27.9799 20.6397 27.9564C20.8891 27.9211 21.1266 27.8859 21.376 27.8506C21.6254 27.8153 21.8629 27.7683 22.1123 27.7213C22.4092 27.6626 22.7061 27.6038 23.0148 27.5333C23.3711 27.4511 23.7274 27.357 24.0836 27.2395C24.3212 27.1573 24.5587 27.0633 24.7724 26.9458C24.8674 26.8987 24.9506 26.84 25.0337 26.7695C25.0931 26.7225 25.1524 26.6637 25.1881 26.5932C25.2593 26.4757 25.2593 26.3699 25.1881 26.2524C25.1524 26.1819 25.0931 26.1232 25.0218 26.0762C24.9387 26.0174 24.8556 25.9704 24.7605 25.9351C24.5587 25.8411 24.3449 25.7824 24.1311 25.7236C23.8936 25.6531 23.6561 25.5943 23.4186 25.5238C22.9673 25.3828 22.5042 25.2536 22.0411 25.1478C21.7323 25.0773 21.4354 25.0185 21.1266 24.9598C20.9485 24.9245 20.7822 24.901 20.6041 24.8775C20.4616 24.854 20.3191 24.8423 20.1766 24.8305C19.951 24.807 19.7253 24.7953 19.4997 24.7718C19.4522 24.7835 19.4166 24.7718 19.3691 24.7718ZM22.5992 20.8703C22.5755 20.9173 22.5517 20.9526 22.5279 20.9996C22.3023 21.4226 22.0648 21.8222 21.7917 22.21C21.6967 22.3392 21.6135 22.4567 21.5185 22.586C21.5067 22.6095 21.4829 22.6213 21.4829 22.6565C21.5185 22.6683 21.5542 22.6565 21.5898 22.6565C21.6848 22.6448 21.7798 22.633 21.8748 22.6213C22.1836 22.5743 22.4923 22.5155 22.8011 22.4332C23.8461 22.163 24.8199 21.7282 25.6987 21.1053C26.2331 20.7293 26.7319 20.2945 27.1475 19.7892C27.4088 19.4837 27.6225 19.1546 27.7888 18.7903C27.9788 18.3673 28.0976 17.9325 28.1332 17.4624C28.1569 17.0981 28.1569 16.7221 28.0857 16.3578C27.9907 15.782 27.7413 15.2884 27.3494 14.8536C27.1356 14.6186 26.8863 14.4188 26.5775 14.3013C26.2569 14.1603 25.9125 14.1368 25.5681 14.2191C25.2831 14.2896 25.0218 14.4306 24.7962 14.6186C24.7605 14.6539 24.7487 14.6891 24.7368 14.7244C24.7012 14.9006 24.6774 15.0887 24.6418 15.2649C24.5943 15.4765 24.5468 15.688 24.4993 15.8995C24.4874 15.923 24.4874 15.9583 24.4874 15.9935C24.523 15.9935 24.5468 15.9935 24.5705 15.9818C24.6893 15.9583 24.7962 15.9348 24.9149 15.923C25.1287 15.8995 25.3543 15.8995 25.5681 15.9465C25.865 16.017 26.1144 16.1463 26.3044 16.3696C26.6013 16.6986 26.7319 17.0864 26.72 17.5212C26.72 17.8502 26.6369 18.1558 26.4825 18.4378C26.3162 18.7786 26.0787 19.0841 25.8056 19.3544C25.1999 19.9655 24.4755 20.4003 23.6561 20.6705C23.3711 20.7646 23.0623 20.8351 22.7655 20.8586C22.7536 20.8586 22.6823 20.8703 22.5992 20.8703ZM20.426 28.7202C20.4022 28.7202 20.3904 28.7202 20.3666 28.7202C20.1647 28.7437 19.9628 28.7672 19.761 28.7907C19.5947 28.8025 19.4284 28.826 19.2622 28.8377C19.1672 28.8495 19.084 28.8495 18.989 28.8612C18.8703 28.873 18.7634 28.8847 18.6447 28.8965C18.514 28.9082 18.3834 28.9082 18.2528 28.92C18.1459 28.9317 18.0271 28.9317 17.9202 28.9435C17.754 28.9552 17.5877 28.967 17.4215 28.9787C17.2077 28.9905 16.994 28.9905 16.7802 29.0022C16.5189 29.014 16.2577 29.0257 15.9845 29.0375C15.7114 29.0492 15.4383 29.0492 15.1651 29.0492C14.2032 29.061 13.2413 29.061 12.2913 29.0375C11.6737 29.0257 11.0562 29.014 10.4268 29.014C10.1774 29.014 9.92803 29.014 9.67864 29.014C9.04924 29.0022 8.43171 28.9905 7.80231 28.9787C7.55293 28.9787 7.29167 28.967 7.04228 28.9552C6.8879 28.9552 6.74539 28.9435 6.59101 28.9317C6.34162 28.92 6.09224 28.8965 5.84285 28.8847C5.83098 28.8847 5.80723 28.8847 5.80723 28.9082C5.8191 28.92 5.83098 28.9435 5.84285 28.9552C5.92598 29.061 6.03286 29.155 6.13974 29.2373C6.32975 29.39 6.54351 29.5193 6.76914 29.6133C7.24416 29.8248 7.74293 29.9541 8.25358 30.0363C8.40796 30.0599 8.55047 30.0834 8.70485 30.1069C8.85923 30.1304 9.00174 30.1421 9.15612 30.1539C9.27488 30.1656 9.40551 30.1774 9.52426 30.1774C9.73802 30.1891 9.95178 30.2009 10.1655 30.2126C10.6287 30.2244 11.1037 30.2244 11.5669 30.2126C11.745 30.2126 11.935 30.2126 12.1131 30.2009C12.4575 30.1891 12.8019 30.1774 13.1344 30.1774C13.7282 30.1656 14.322 30.1774 14.9157 30.1539C15.1889 30.1421 15.462 30.1421 15.7352 30.1304C15.8777 30.1304 16.0202 30.1186 16.1508 30.1069C16.4121 30.0951 16.6614 30.0716 16.9227 30.0599C17.1483 30.0481 17.374 30.0246 17.5996 30.0011C17.849 29.9776 18.0865 29.9306 18.3359 29.8836C18.7159 29.8013 19.0722 29.6721 19.4166 29.4958C19.7728 29.3078 20.0816 29.0727 20.3666 28.7907C20.4022 28.7672 20.4379 28.7555 20.426 28.7202ZM23.0267 20.0125C23.1455 20.0007 23.2524 19.9655 23.3474 19.9302C23.9411 19.7422 24.4874 19.4484 24.9862 19.0841C25.2237 18.9078 25.4375 18.6963 25.6156 18.4495C25.7343 18.2968 25.8293 18.1323 25.9006 17.9442C25.9718 17.7445 26.0075 17.5447 25.9718 17.3332C25.9362 17.1686 25.8768 17.0276 25.77 16.8984C25.6393 16.7574 25.4731 16.6633 25.2593 16.6516C25.1406 16.6516 25.0218 16.6633 24.9031 16.6868C24.6774 16.7338 24.4755 16.8279 24.2736 16.8984C24.2143 17.0746 24.1549 17.2509 24.0955 17.4272C24.0361 17.6034 23.9649 17.7797 23.9055 17.956C23.8461 18.1323 23.7749 18.2968 23.7036 18.473C23.6324 18.6493 23.5611 18.8138 23.4899 18.9784C23.4186 19.1546 23.3355 19.3191 23.2642 19.4954C23.1811 19.6717 23.098 19.8362 23.0267 20.0125Z" fill="#6B0222"/>
<path d="M17.8372 6.78052C17.8253 7.22707 17.7184 7.65011 17.5165 8.04966C17.3503 8.39045 17.1365 8.68423 16.8871 8.96626C16.5665 9.33055 16.2102 9.64784 15.8302 9.94162C15.8064 9.95337 15.7827 9.97688 15.7708 9.98863C15.6521 10.0474 15.5452 10.0474 15.4383 9.96513C15.4027 9.94162 15.3552 9.90637 15.3195 9.87112C15.2245 9.78886 15.1889 9.69485 15.2127 9.57733C15.2245 9.54208 15.2364 9.49507 15.2483 9.45982C15.3314 9.26005 15.3908 9.06027 15.4264 8.84875C15.5333 8.30819 15.4739 7.77938 15.2483 7.27407C15.1533 7.06255 15.0345 6.85102 14.9039 6.65125C14.7139 6.36922 14.4883 6.09894 14.2745 5.84041C14.0726 5.59363 13.8589 5.35861 13.657 5.11183C13.4788 4.9003 13.3126 4.66528 13.1582 4.43025C13.0038 4.17172 12.8613 3.90144 12.7782 3.61941C12.6832 3.30212 12.6476 2.98484 12.6594 2.66755C12.6713 2.38552 12.7188 2.11524 12.8138 1.85671C12.9919 1.3279 13.3245 0.928355 13.7995 0.62282C14.0845 0.44655 14.3814 0.317286 14.702 0.223275C14.9633 0.152767 15.2245 0.0940106 15.4977 0.0587566C15.8064 0.0117513 16.1152 0 16.4358 0C16.4833 0 16.5308 0 16.5783 0.0117513C16.804 0.070508 16.8515 0.282032 16.8277 0.434799C16.7921 0.599318 16.709 0.70508 16.5546 0.775588C16.4358 0.822593 16.329 0.869598 16.2221 0.928355C16.0915 0.998863 15.9608 1.09287 15.8539 1.19864C15.6402 1.41016 15.5333 1.66869 15.5214 1.97422C15.5214 2.18575 15.5571 2.39727 15.6283 2.59704C15.7114 2.84382 15.8183 3.0671 15.9371 3.29037C16.1152 3.63116 16.329 3.94845 16.5427 4.26573C16.7565 4.58302 16.9821 4.91206 17.1959 5.22934C17.3503 5.45262 17.4928 5.68764 17.6115 5.93442C17.6946 6.09894 17.7659 6.26346 17.7897 6.43973C17.8134 6.55724 17.8253 6.663 17.8372 6.78052ZM14.9633 1.05762C14.9277 1.06937 14.9158 1.06937 14.9039 1.06937C14.5833 1.19864 14.2983 1.36315 14.0607 1.60993C13.6688 2.00948 13.5145 2.49128 13.5857 3.04359C13.6213 3.29037 13.6926 3.53715 13.8114 3.76042C13.9539 4.05421 14.132 4.33624 14.3458 4.58302C14.5001 4.75929 14.6545 4.92381 14.8089 5.10008C14.9752 5.2881 15.1414 5.46437 15.3077 5.65239C15.5096 5.87566 15.6877 6.12244 15.8302 6.39272C16.1152 6.92153 16.2577 7.49735 16.2815 8.09667C16.2815 8.19068 16.2815 8.27293 16.2815 8.36695C16.2815 8.3787 16.2815 8.4022 16.3052 8.41395C16.3171 8.39045 16.3408 8.3787 16.3527 8.35519C16.4358 8.23768 16.519 8.10842 16.5902 7.97915C16.7565 7.65011 16.8396 7.29757 16.8396 6.93328C16.8396 6.69826 16.7921 6.47498 16.7327 6.25171C16.6377 5.94617 16.5071 5.65239 16.3408 5.38211C16.1983 5.13533 16.044 4.91206 15.8658 4.68878C15.6639 4.4185 15.4621 4.14822 15.2839 3.86619C15.082 3.5254 14.9039 3.18461 14.8089 2.79682C14.7258 2.47953 14.6783 2.16224 14.7139 1.83321C14.7376 1.59818 14.797 1.38666 14.9039 1.17513C14.9277 1.13988 14.9395 1.10462 14.9633 1.05762Z" fill="#6B0222"/>
<path d="M12.3508 7.47374C12.3508 7.88504 12.232 8.27283 12.0302 8.62537C11.8639 8.94266 11.6383 9.23644 11.3889 9.49497C11.1632 9.73 10.9257 9.92977 10.6764 10.1178C10.6526 10.1413 10.617 10.153 10.5813 10.1765C10.4863 10.2236 10.3795 10.2236 10.2963 10.1648C10.237 10.1295 10.1895 10.0943 10.142 10.0473C10.0588 9.97678 10.0232 9.88276 10.0588 9.76525C10.0707 9.73 10.0826 9.69474 10.0945 9.65949C10.1895 9.43621 10.2488 9.21294 10.2726 8.96616C10.3082 8.66063 10.2726 8.35509 10.1776 8.07306C10.1063 7.84978 9.98757 7.63826 9.85694 7.42674C9.72631 7.21521 9.57193 7.02719 9.41755 6.83917C9.25129 6.6394 9.08503 6.45138 8.93065 6.26336C8.78814 6.09884 8.65751 5.92257 8.52688 5.7463C8.34875 5.49952 8.20624 5.24099 8.09937 4.95896C7.99249 4.66518 7.94498 4.34789 7.95686 4.04236C7.96873 3.78383 8.01624 3.53705 8.11124 3.30202C8.2775 2.86722 8.58626 2.53819 8.99003 2.29141C9.27504 2.12689 9.5838 2.00938 9.90444 1.93887C10.1063 1.89186 10.3201 1.85661 10.5338 1.83311C10.7357 1.8096 10.9376 1.79785 11.1395 1.79785C11.187 1.79785 11.2345 1.8096 11.282 1.82135C11.4126 1.85661 11.4958 1.95062 11.5195 2.07988C11.567 2.32666 11.4364 2.51468 11.2701 2.57344C11.2226 2.59694 11.1751 2.60869 11.1395 2.6322C11.0207 2.69095 10.9139 2.74971 10.807 2.83197C10.5695 3.03174 10.4626 3.27852 10.4863 3.58405C10.4982 3.76032 10.5457 3.93659 10.6051 4.10111C10.6882 4.31264 10.7832 4.51241 10.902 4.71218C11.0564 4.98246 11.2226 5.24099 11.4008 5.48777C11.567 5.73455 11.7333 5.99308 11.8995 6.23985C12.0064 6.40437 12.1133 6.58064 12.1964 6.75691C12.2677 6.88618 12.327 7.02719 12.3508 7.17996C12.3389 7.27397 12.3389 7.37973 12.3508 7.47374ZM11.0682 8.60187C11.092 8.59012 11.092 8.59012 11.1039 8.59012C11.1157 8.57837 11.1276 8.55486 11.1395 8.54311C11.3889 8.12007 11.4601 7.66176 11.3414 7.17996C11.282 6.90968 11.1632 6.65115 11.0326 6.40437C10.902 6.1811 10.7595 5.95782 10.5932 5.75805C10.427 5.53477 10.2607 5.32325 10.1182 5.08822C9.92819 4.78269 9.77381 4.45365 9.70256 4.10111C9.61943 3.70157 9.60755 3.31377 9.76194 2.92598C9.76194 2.91423 9.76194 2.90248 9.76194 2.87897C9.73818 2.87897 9.72631 2.89073 9.71443 2.89073C9.4888 2.99649 9.28692 3.14925 9.13253 3.33728C8.93065 3.58405 8.83565 3.85433 8.83565 4.17162C8.83565 4.37139 8.87127 4.57116 8.94253 4.75919C9.03753 5.02947 9.19191 5.27624 9.37004 5.51127C9.52443 5.71104 9.69068 5.88731 9.85694 6.06358C9.9757 6.19285 10.1063 6.33386 10.2251 6.46313C10.3795 6.6394 10.522 6.82742 10.6407 7.03894C10.902 7.49725 11.0326 7.97905 11.0682 8.50786C11.0564 8.53136 11.0682 8.56662 11.0682 8.60187Z" fill="#6B0222"/>
<path d="M3.72925 13.843C3.93113 13.843 4.10926 13.9723 4.14489 14.1486C4.15676 14.2073 4.15676 14.2661 4.16864 14.3248C4.25177 15.3119 4.46553 16.2638 4.79804 17.1921C5.08305 17.9912 5.46307 18.7433 5.91434 19.4601C5.93809 19.5072 5.97372 19.5542 5.98559 19.6012C6.02122 19.6952 6.00934 19.8009 5.96184 19.8949C5.86684 20.0595 5.6412 20.1417 5.47495 20.083C5.39182 20.0595 5.33244 20.0125 5.28494 19.942C5.26119 19.9184 5.24931 19.8832 5.22556 19.8479C4.50115 18.6963 3.99051 17.4624 3.66987 16.1463C3.57486 15.7232 3.49173 15.3002 3.43236 14.8654C3.40861 14.6539 3.38486 14.4541 3.3611 14.2426C3.34923 14.1838 3.3611 14.125 3.38486 14.0663C3.43236 13.937 3.55111 13.8783 3.68174 13.8548C3.69362 13.843 3.70549 13.843 3.72925 13.843Z" fill="#6B0222"/>
<path d="M6.41321 20.8587C6.63885 20.8587 6.78135 21.0232 6.79323 21.223C6.79323 21.2818 6.79323 21.3288 6.76948 21.3875C6.7101 21.5638 6.54384 21.6696 6.35384 21.6461C6.1282 21.6108 5.99757 21.4345 6.02132 21.2113C6.02132 21.1878 6.0332 21.1525 6.0332 21.129C6.09258 20.9645 6.22321 20.847 6.41321 20.8587Z" fill="#6B0222"/>
</svg>
