<svg width="16" height="32" viewBox="0 0 16 32" fill="none" xmlns="http://www.w3.org/2000/svg">
<path d="M0.0358209 29.2418C0.0597015 29.2179 0.0716418 29.194 0.0716418 29.1701C0.107463 28.8119 0.298507 28.5373 0.573134 28.3104C0.728358 28.1791 0.895522 28.0716 1.08657 27.9761C1.39701 27.8209 1.7194 27.7015 2.05373 27.606C2.41194 27.5104 2.78209 27.4269 3.1403 27.3672C3.45075 27.3194 3.77313 27.2716 4.08358 27.2358C4.34627 27.2119 4.60895 27.1881 4.88358 27.1642C5.36119 27.1284 5.85075 27.1164 6.32836 27.1045C6.49552 27.1045 6.66269 27.0925 6.82985 27.0925C6.85373 27.0925 6.87761 27.0925 6.90149 27.0925C6.90149 27.0687 6.91343 27.0567 6.91343 27.0328C6.91343 26.9134 6.92537 26.794 6.92537 26.6746C6.94925 25.1821 6.96119 23.6896 6.94925 22.197C6.94925 21.6358 6.93731 21.0746 6.92537 20.5254C6.92537 20.2985 6.91343 20.0716 6.91343 19.8448C6.88955 19.8209 6.85373 19.8209 6.81791 19.8209C5.38507 19.5582 4.10746 18.9731 3.00896 18.0179C1.80298 16.9791 1.00299 15.6776 0.597015 14.1373C0.489552 13.7313 0.40597 13.3134 0.346269 12.8955C0.298507 12.5373 0.262687 12.1791 0.238806 11.8209C0.202985 11.2836 0.202985 10.7343 0.226866 10.197C0.238806 9.88657 0.262687 9.56418 0.298507 9.25373C0.322388 8.99104 0.346269 8.72836 0.38209 8.46567C0.41791 8.1791 0.465672 7.89254 0.513433 7.59403C0.561194 7.29552 0.608955 6.98507 0.668657 6.68657C0.740299 6.2806 0.823881 5.87463 0.907463 5.4806C1.11045 4.48955 1.34925 3.49851 1.58806 2.49552C1.75522 1.79104 1.92239 1.07463 2.06567 0.370149C2.06567 0.346269 2.07761 0.334328 2.07761 0.310448C2.11343 0.167164 2.20895 0.0955224 2.3403 0.0716418C2.41194 0.0597015 2.49552 0.0477612 2.56716 0.0597015C2.59104 0.0597015 2.61493 0.0597015 2.63881 0.0597015C2.92537 0.0716418 3.21194 0.0835821 3.49851 0.0835821C3.98806 0.0955224 4.48955 0.107463 4.9791 0.119403C5.19403 0.119403 5.40895 0.131343 5.62388 0.131343C6.41194 0.155224 7.21194 0.155224 8 0.155224C8.60896 0.155224 9.20597 0.155224 9.81493 0.143284C10.1134 0.143284 10.4 0.131343 10.6985 0.119403C11.0925 0.107463 11.4866 0.0955224 11.8806 0.0835821C12.1791 0.0716418 12.4657 0.0597015 12.7642 0.0477612C13.0627 0.0358209 13.3493 0.0119403 13.6478 0C13.6716 0 13.6955 0 13.7194 0C13.8507 0 13.9821 0.0597015 14.0418 0.238806C14.0537 0.286567 14.0657 0.334328 14.0896 0.38209C14.4597 1.4209 14.7821 2.47164 15.0448 3.53433C15.2 4.15522 15.3433 4.77612 15.4627 5.40896C15.5463 5.83881 15.6179 6.25672 15.6896 6.68657C15.7373 7.04478 15.797 7.40299 15.8328 7.74925C15.8687 8.03582 15.8925 8.33433 15.9164 8.62089C15.9522 8.9791 15.9761 9.33731 15.9881 9.69552C16 10.006 16 10.3164 16 10.6269C16 10.9731 15.9881 11.3075 15.9642 11.6537C15.9403 11.9164 15.9164 12.1791 15.8925 12.4537C15.8567 12.7881 15.809 13.1224 15.7493 13.4448C15.5821 14.3403 15.3313 15.2239 14.9373 16.0478C14.6269 16.7164 14.2209 17.3134 13.7194 17.8507C13.0507 18.5552 12.2627 19.0687 11.3552 19.4149C10.9254 19.5821 10.4716 19.7015 10.0179 19.7851C9.75522 19.8328 9.4806 19.8687 9.20597 19.9045C9.19403 19.9045 9.18209 19.9045 9.17015 19.9164C9.17015 19.9284 9.15821 19.9522 9.15821 19.9642C9.15821 19.9881 9.15821 20.0119 9.15821 20.0358C9.17015 20.5373 9.17015 21.0388 9.18209 21.5403C9.19403 22.7821 9.19403 24.0239 9.18209 25.2657C9.18209 25.7313 9.17015 26.1851 9.17015 26.6507C9.17015 26.7463 9.17015 26.8418 9.15821 26.9254C9.15821 26.9612 9.14627 26.997 9.17015 27.0328C9.18209 27.0328 9.20597 27.0448 9.21791 27.0448C9.25373 27.0448 9.28955 27.0448 9.32537 27.0448C9.64776 27.0567 9.97015 27.0567 10.2925 27.0687C10.603 27.0806 10.9254 27.1045 11.2358 27.1284C11.4985 27.1522 11.7493 27.1761 12.0119 27.2C12.609 27.2716 13.206 27.3552 13.791 27.5104C14.197 27.606 14.591 27.7373 14.9731 27.9164C15.1761 28.0119 15.3791 28.1313 15.5463 28.2746C15.6299 28.3463 15.7015 28.4179 15.7731 28.5134C15.8328 28.597 15.8925 28.6925 15.9284 28.7881C15.9522 28.8478 15.9761 28.9194 15.9761 28.9791C15.9761 29.003 15.9881 29.0149 16 29.0388C16 29.1224 16 29.206 16 29.2896C15.9761 29.3015 15.9761 29.3254 15.9761 29.3493C15.9761 29.4567 15.9403 29.5522 15.8925 29.6478C15.8328 29.7552 15.7612 29.8507 15.6776 29.9343C15.5701 30.0418 15.4388 30.1373 15.3075 30.209C15.0925 30.3403 14.8776 30.4358 14.6507 30.5194C14.197 30.6866 13.7194 30.806 13.2418 30.9015C12.7642 30.997 12.2746 31.0806 11.7851 31.1403C11.4269 31.1881 11.0806 31.2358 10.7224 31.2716C10.4239 31.3075 10.1134 31.3313 9.81493 31.3433C9.49254 31.3672 9.15821 31.3791 8.83582 31.391C8.78806 31.391 8.7403 31.391 8.69254 31.391C8.66866 31.391 8.64478 31.403 8.6209 31.403C8.22687 31.403 7.8209 31.403 7.42687 31.403C7.39104 31.391 7.34328 31.391 7.30746 31.391C7.17612 31.391 7.04478 31.391 6.91343 31.3791C6.54328 31.3672 6.17313 31.3433 5.80298 31.3313C5.6 31.3194 5.38507 31.3194 5.18209 31.3075C5.07463 31.3075 4.95522 31.2955 4.84776 31.2836C4.57313 31.2597 4.29851 31.2358 4.02388 31.2119C3.8209 31.1881 3.62985 31.1761 3.42687 31.1522C3.15224 31.1164 2.87761 31.0687 2.61493 31.0209C2.25672 30.9612 1.89851 30.8657 1.55224 30.7463C1.27761 30.6507 1.00299 30.5433 0.752239 30.3881C0.620896 30.3045 0.501493 30.2209 0.38209 30.1015C0.191045 29.9104 0.0597015 29.6836 0.0358209 29.409C0.0358209 29.3731 0.0238806 29.3493 0 29.3254C0.0358209 29.3134 0.0358209 29.2776 0.0358209 29.2418ZM1.12239 9.81492C1.18209 9.82687 1.21791 9.80298 1.26567 9.79104C1.73134 9.6597 2.20896 9.5403 2.68657 9.45672C3.03284 9.39701 3.39104 9.34925 3.74925 9.31343C4.03582 9.28955 4.32239 9.26567 4.60895 9.26567C5.01493 9.25373 5.40896 9.27761 5.81493 9.31343C6.07761 9.33731 6.3403 9.37313 6.59104 9.4209C6.97313 9.49254 7.35522 9.56418 7.74925 9.63582C8.08358 9.69552 8.41791 9.74328 8.75224 9.79104C9.06269 9.83881 9.37313 9.87463 9.68358 9.89851C9.95821 9.92239 10.2328 9.93433 10.5075 9.94627C10.7343 9.95821 10.9493 9.94627 11.1761 9.93433C11.4866 9.92239 11.7851 9.89851 12.0836 9.85075C12.394 9.81493 12.6925 9.75522 12.991 9.68358C13.6597 9.52836 14.3045 9.28955 14.9254 9.01493C15.009 8.9791 15.0806 8.93134 15.1761 8.9194L15.1881 8.90746C15.1881 8.88358 15.1881 8.84776 15.1881 8.81194C15.1522 8.46567 15.1164 8.1194 15.0806 7.77313C15.0448 7.41493 14.9851 7.04478 14.9254 6.68657C14.8418 6.18507 14.7463 5.67164 14.6507 5.17015C14.4597 4.27463 14.2448 3.39104 13.9821 2.50746C13.8269 1.97015 13.6597 1.44478 13.4806 0.919403C13.4687 0.883582 13.4567 0.835821 13.4328 0.8C13.397 0.8 13.3612 0.8 13.3254 0.8C13.1224 0.81194 12.9313 0.835821 12.7403 0.835821C12.4537 0.847761 12.1672 0.859701 11.8687 0.871642C11.4746 0.883582 11.0806 0.895522 10.6866 0.907463C10.3881 0.919403 10.0896 0.919403 9.79104 0.931343C8.50149 0.943284 7.21194 0.955224 5.92239 0.931343C5.33731 0.919403 4.76418 0.907463 4.1791 0.895522C3.85672 0.883582 3.52239 0.871642 3.2 0.871642C3.17612 0.871642 3.15224 0.871642 3.12836 0.871642C3.03284 0.871642 2.92537 0.859701 2.82985 0.859701C2.80597 0.859701 2.78209 0.859701 2.75821 0.871642C2.74627 0.895522 2.74627 0.907463 2.74627 0.931343C2.71045 1.11045 2.67463 1.30149 2.62687 1.4806C2.42388 2.37612 2.2209 3.28358 2.02985 4.1791C1.91045 4.71642 1.80299 5.25373 1.68358 5.80298C1.61194 6.16119 1.5403 6.5194 1.4806 6.87761C1.43284 7.12836 1.39701 7.39104 1.36119 7.64179C1.32537 7.8806 1.28955 8.13134 1.25373 8.38209C1.21791 8.63284 1.19403 8.89552 1.17015 9.14627C1.14627 9.34925 1.13433 9.56418 1.12239 9.76716C1.12239 9.76716 1.12239 9.7791 1.12239 9.81492ZM1.07463 10.6507C1.07463 10.6746 1.06269 10.7104 1.06269 10.7343C1.06269 11.0925 1.05075 11.4507 1.06269 11.809C1.06269 12.0597 1.08657 12.3104 1.12239 12.5731C1.15821 12.8955 1.21791 13.2179 1.28955 13.5403C1.4806 14.3403 1.7791 15.1045 2.19701 15.809C2.73433 16.7045 3.42687 17.4448 4.28657 18.0299C5.36119 18.7463 6.54328 19.1164 7.8209 19.1881C8.16716 19.2119 8.52537 19.2 8.87164 19.1761C9.15821 19.1522 9.43284 19.1284 9.70746 19.0806C10.1612 19.009 10.603 18.8896 11.0328 18.7343C11.9284 18.4 12.6925 17.8746 13.3254 17.1582C13.7433 16.6806 14.0776 16.1433 14.3403 15.5701C14.7463 14.6866 14.9731 13.7552 15.1045 12.8C15.1403 12.5493 15.1642 12.2985 15.1881 12.0478C15.2119 11.7851 15.2239 11.5343 15.2358 11.2716C15.2478 10.806 15.2478 10.3522 15.2358 9.88657C15.2358 9.85075 15.2358 9.82687 15.2239 9.79104C15.2239 9.7791 15.2119 9.76716 15.2119 9.75522C15.2 9.75522 15.1881 9.75522 15.1881 9.75522C15.1642 9.76716 15.1403 9.7791 15.1164 9.7791C14.794 9.92239 14.4716 10.0657 14.1373 10.1851C13.3612 10.4716 12.5731 10.6985 11.7493 10.8179C11.4269 10.8657 11.1045 10.8896 10.7821 10.9015C10.3642 10.9134 9.94627 10.8896 9.52836 10.8418C9.21791 10.806 8.90746 10.7463 8.59701 10.6746C8.16716 10.5791 7.72537 10.4716 7.29552 10.3642C6.77015 10.2328 6.23284 10.1134 5.68358 10.0537C5.46866 10.0299 5.25373 10.006 5.02687 10.006C4.54925 9.99403 4.07164 10.0179 3.59403 10.0776C3.33134 10.1134 3.05672 10.1493 2.79403 10.209C2.23284 10.3164 1.68358 10.4597 1.14627 10.6269C1.13433 10.6269 1.11045 10.6388 1.07463 10.6507ZM6.88955 27.8925C6.85373 27.8925 6.82985 27.8806 6.80597 27.8925C6.50746 27.9045 6.20896 27.9045 5.91045 27.9164C5.79104 27.9164 5.67164 27.9284 5.5403 27.9403C5.26567 27.9642 4.99104 27.9881 4.71642 28.0119C4.52537 28.0358 4.33433 28.0478 4.14328 28.0836C3.84478 28.1194 3.55821 28.1672 3.2597 28.2269C2.88955 28.2985 2.5194 28.394 2.16119 28.5134C1.98209 28.5731 1.80299 28.6448 1.63582 28.7403C1.52836 28.8 1.4209 28.8597 1.33731 28.9433C1.28955 28.991 1.24179 29.0388 1.20597 29.1104C1.14627 29.2179 1.13433 29.3373 1.19403 29.4448C1.22985 29.5045 1.26567 29.5522 1.30149 29.6C1.37313 29.6716 1.44478 29.7313 1.52836 29.791C1.63582 29.8627 1.75522 29.9343 1.88657 29.9821C2.2209 30.1373 2.56716 30.2328 2.92537 30.3164C3.36716 30.4119 3.8209 30.4716 4.26269 30.5075C4.56119 30.5313 4.8597 30.5552 5.17015 30.5672C5.4209 30.5791 5.67164 30.591 5.93433 30.591C5.95821 30.591 5.98209 30.591 6.00597 30.591C6.32836 30.603 6.65075 30.6269 6.97313 30.6388C7.29552 30.6507 7.61791 30.6627 7.9403 30.6746C8.58507 30.6866 9.22985 30.6866 9.86269 30.6627C9.87463 30.6627 9.88657 30.6627 9.89851 30.6627C10.1373 30.6507 10.3761 30.6269 10.6149 30.6149C10.7821 30.603 10.9493 30.591 11.1164 30.5672C11.3791 30.5313 11.6418 30.4955 11.9045 30.4597C12.2269 30.4119 12.5373 30.3522 12.8597 30.2687C13.1701 30.197 13.4806 30.1015 13.791 30.0179C13.9463 29.9701 14.1134 29.9224 14.2687 29.8627C14.3761 29.8149 14.4955 29.7672 14.591 29.6955C14.6627 29.6478 14.7224 29.5881 14.7701 29.5284C14.8537 29.409 14.8896 29.2896 14.8657 29.1463C14.806 28.9194 14.6985 28.7284 14.4716 28.6328C14.4239 28.609 14.3761 28.5851 14.3164 28.5731C14.1612 28.5134 14.006 28.4776 13.8507 28.4418C13.4925 28.3701 13.1463 28.2866 12.7881 28.2149C12.3701 28.1313 11.9522 28.0597 11.5224 28.0119C11.2836 27.9881 11.0448 27.9642 10.8179 27.9522C10.4955 27.9284 10.1851 27.9045 9.86269 27.8925C9.79105 27.8925 9.7194 27.8806 9.63582 27.8806C9.49254 27.8806 9.36119 27.8687 9.21791 27.8687C9.19403 27.8687 9.17015 27.8806 9.15821 27.8806C9.15821 27.9164 9.15821 27.9403 9.15821 27.9761C9.15821 28.2388 9.14627 28.5015 9.14627 28.7522C9.14627 28.7761 9.14627 28.8119 9.14627 28.8358C9.13433 28.9791 9.06269 29.0866 8.93134 29.1463C8.84776 29.1821 8.77612 29.194 8.6806 29.1821C8.51343 29.1701 8.39403 29.0507 8.37015 28.8955C8.35821 28.8597 8.35821 28.8239 8.35821 28.7881C8.35821 28.6806 8.37015 28.5851 8.37015 28.4776C8.38209 27.6537 8.40597 26.8299 8.40597 26.006C8.41791 24.2507 8.41791 22.4836 8.39403 20.7284C8.39403 20.5134 8.38209 20.2866 8.38209 20.0716C8.38209 20.0478 8.38209 20.0239 8.35821 19.9881C8.25075 19.9881 8.13134 19.9881 8.02388 19.9881C7.90448 19.9881 7.78507 19.9642 7.66567 19.9761C7.66567 20.0119 7.66567 20.0478 7.66567 20.0836C7.66567 20.394 7.67761 20.7045 7.67761 21.0149C7.68955 21.4925 7.68955 21.9821 7.68955 22.4597C7.70149 23.5821 7.70149 24.7045 7.68955 25.8269C7.67761 26.3164 7.67761 26.806 7.66567 27.2955C7.65373 27.7612 7.64179 28.2149 7.64179 28.6806C7.64179 28.7164 7.64179 28.7642 7.64179 28.8C7.62985 28.991 7.51045 29.1224 7.33134 29.1582C7.28358 29.1701 7.22388 29.1701 7.17612 29.1582C7.0209 29.1343 6.90149 29.0269 6.87761 28.8836C6.86567 28.8478 6.86567 28.8 6.86567 28.7642C6.86567 28.5134 6.86567 28.2627 6.86567 28.0119C6.88955 27.9761 6.88955 27.9403 6.88955 27.8925Z" fill="#00514E"/>
</svg>
