<svg width="44" height="43" viewBox="0 0 44 43" fill="none" xmlns="http://www.w3.org/2000/svg">
<path d="M43.9844 23.6463L43.9761 23.7323C43.9282 27.1046 43.9768 29.0672 43.9317 32.622C43.9157 33.1028 43.9164 33.5891 43.768 34.0546C43.5425 34.7609 43.0347 35.0293 42.3111 34.8386C41.8664 34.7213 41.4807 34.4757 41.0873 34.253C38.0307 32.5193 34.9927 30.751 31.9159 29.0527C30.2704 28.1446 29.5454 26.7418 29.4767 24.9561C29.2845 19.968 29.39 14.9765 29.3747 9.98704C29.374 9.68873 29.5967 9.4369 29.8937 9.4029C32.5743 9.09696 35.2543 8.782 37.9349 8.47328C38.8784 8.36436 39.8184 8.21867 40.7703 8.19786C43.1131 8.14583 43.9449 9.38833 43.9775 11.7401C44.0018 13.4842 44.0142 15.2894 43.9775 17.0335C43.9581 17.9409 43.9914 18.8025 43.9775 19.7099C43.9636 20.6174 43.9775 21.5095 43.9775 22.417C43.9768 22.75 44.0059 23.5179 43.9844 23.6463Z" fill="#01F1EA"/>
<path d="M0.016709 16.4626C0.0160152 16.4605 0.0146257 16.4578 0.0146257 16.4557C0.0146257 14.1163 0.0146257 12.3972 0.0146257 8.85009C0.0146257 8.28607 0.0146257 6.55655 0.0146257 5.64982C0.0146257 4.93318 0.60431 4.75766 1.58111 5.21414C2.58011 5.54923 6.90217 7.73038 8.37292 8.29994C10.5 9.12343 11.4872 10.8307 11.9999 12.9772C12.1393 13.5613 12.1629 13.8825 12.1643 14.9329C12.165 15.5288 12.149 24.431 12.1643 28.59C12.1657 28.9723 12.0456 29.0826 11.6835 29.1499C8.4083 29.7583 5.14005 30.4035 1.85445 30.9564C0.558527 31.1743 -0.00619257 30.767 5.11826e-05 29.4177C0.0139262 26.4679 0.0500063 24.9541 0.0139313 21.9966C0.00421876 21.203 0.0139313 19.0364 0.0139313 18.2421C-0.0117375 18.2414 0.038909 16.5472 0.016709 16.4626Z" fill="#FE014E"/>
<path d="M15.4284 32.4321C15.4277 32.2441 15.5484 32.1074 15.7843 32.07C17.9252 31.7293 20.0322 31.2021 22.1828 30.9128C24.3514 30.6207 26.5118 30.5881 28.634 31.2146C29.8258 31.5663 30.8609 32.2614 31.9425 32.8442C34.0612 33.9861 36.1473 35.1884 38.2597 36.3421C38.9424 36.8138 39.4641 36.8076 39.3989 37.8864C39.3448 38.7771 38.8376 38.7785 37.3155 39.1774C35.7206 39.5333 35.6519 39.5104 34.5815 39.756C30.1345 40.5552 27.8167 41.0353 23.3691 41.8338C22.0593 42.069 20.7564 42.3749 19.4279 42.4714C17.1767 42.6344 15.6268 41.2712 15.4277 39.0227C15.4534 37.7455 15.4312 33.5241 15.4284 32.4321Z" fill="white"/>
<path d="M25.8407 16.858C25.8872 18.8595 25.7679 20.8617 25.8206 22.8604C25.8907 25.5375 23.7484 27.4898 21.6345 27.8685C19.6816 28.2182 17.7315 28.5852 15.782 28.9563C15.5115 29.0077 15.4379 28.9397 15.4372 28.6684C15.4317 24.4248 15.4157 20.1825 15.4289 15.9388C15.4324 14.7331 15.696 13.5717 16.4272 12.5686C17.2826 11.3941 18.505 10.8044 19.8821 10.5865C21.5305 10.325 22.0473 10.2882 23.6797 10.0919C23.6936 10.0905 24.8063 9.9795 24.8209 9.97811C25.2538 9.92886 25.6291 9.86434 25.7602 10.1273C25.8456 10.2979 25.8206 10.5609 25.8206 10.9015C25.8261 12.887 25.8407 14.8711 25.8407 16.858Z" fill="#FE014E"/>
<path d="M3.94957 3.23897C3.58189 3.0357 3.45493 2.31905 4.38803 2.19973C5.85184 2.01242 6.89385 1.89725 6.89385 1.89725C6.89385 1.89725 11.8153 1.32213 14.4842 1.01411C17.1523 0.766441 19.8205 0.371004 22.4893 0.128191C23.1526 0.0678352 23.8158 -0.0299837 24.4832 0.00886633C25.3712 0.0608976 25.707 0.404997 25.8062 1.28745C25.8069 1.29369 25.8076 1.29993 25.8076 1.30618C25.8256 2.07624 25.8256 3.60388 25.8256 3.60388C25.8256 3.60388 25.8256 5.32785 25.8256 6.16035C25.8339 6.47115 25.7743 6.58492 25.4787 6.67858C20.1077 8.38382 14.8116 8.1528 9.57797 6.10068C7.19841 5.16759 3.95096 3.23966 3.94957 3.23897Z" fill="#FE014E"/>
<path d="M2.45219 34.9078C2.33287 34.7406 2.43068 34.5054 2.63326 34.468C3.43732 34.3188 4.2046 34.1759 4.97119 34.0344C7.19952 33.6223 9.42854 33.213 11.6569 32.7988C12.18 32.7017 12.1758 32.6954 12.1793 33.2386C12.1931 35.3941 12.2972 37.5489 12.1716 39.7044C12.1654 39.8071 12.1591 39.9097 12.1508 40.0117C12.0627 41.0981 10.8008 41.6608 9.9433 40.9885C9.93845 40.985 9.93428 40.9816 9.92942 40.9781C7.82597 39.32 6.66117 38.4029 4.5605 36.7407C4.28577 36.4666 2.73177 35.2984 2.45219 34.9078Z" fill="white"/>
<path d="M41.3185 4.32813C41.6786 4.54735 41.5523 5.10027 41.134 5.15022C40.1704 5.26539 39.2068 5.38055 38.2438 5.49502C35.4709 5.82524 32.6973 6.14853 29.9258 6.48916C29.0364 6.59877 29.0378 6.61889 29.0392 5.71077C29.0406 4.43358 29.0426 3.15639 29.0454 1.87989C29.0461 1.73836 29.0447 1.59545 29.0614 1.45462C29.1668 0.580492 29.6892 0.239861 30.5203 0.518748C31.5949 0.878805 32.6661 1.24788 33.7352 1.62459C36.1529 2.47651 38.5637 3.34925 40.989 4.17897C41.1132 4.22129 41.2228 4.26985 41.3185 4.32813Z" fill="#01F1EA"/>
</svg>
