<svg width="62" height="16" viewBox="0 0 62 16" fill="none" xmlns="http://www.w3.org/2000/svg">
<path d="M0.734788 0.000663985H3.06509C3.416 0.000663985 3.71782 0.248752 3.78614 0.593024L5.16455 7.56868C5.31712 8.3408 6.41229 8.36535 6.59935 7.60052L8.32137 0.560521C8.40164 0.231505 8.69683 0 9.03513 0H11.8603C12.2012 0 12.4977 0.234821 12.5754 0.567152L14.2118 7.53551C14.3922 8.30432 15.4934 8.28575 15.6479 7.51163L17.029 0.591696C17.0973 0.248087 17.3991 0.000663985 17.7494 0.000663985H20.0949C20.5759 0.000663985 20.9274 0.45505 20.806 0.920712L17.3109 14.3281C17.2267 14.6518 16.9341 14.8773 16.5998 14.8773H13.3594C13.0205 14.8773 12.7253 14.6452 12.645 14.3155L11.1094 7.98061C10.9283 7.23502 9.86961 7.23038 9.68254 7.97464L8.08921 14.3214C8.00695 14.6485 7.7131 14.8773 7.37678 14.8773H4.13439C3.79808 14.8773 3.50488 14.6491 3.42197 14.3228L0.0230271 0.916068C-0.0950469 0.451732 0.255858 0.000663985 0.734788 0.000663985Z" fill="white"/>
<path d="M22.8352 0.000663985H24.9897C25.3957 0.000663985 25.7247 0.32968 25.7247 0.735643V8.90199C25.7247 10.6612 26.5937 11.6781 28.3104 11.6781C30.0271 11.6781 30.9385 10.6612 30.9385 8.90199V0.734979C30.9385 0.329016 31.2676 0 31.6735 0H33.828C34.234 0 34.563 0.329016 34.563 0.734979V8.8801C34.563 12.9915 31.6808 15.0259 28.2474 15.0259C24.7927 15.0259 22.1016 12.9915 22.1016 8.8801V0.734979C22.1009 0.32968 22.4293 0.000663985 22.8352 0.000663985Z" fill="white"/>
<path d="M44.6277 0.000732422H41.4622C41.1531 0.000732422 40.8765 0.194427 40.771 0.485632L35.9194 13.8943C35.7463 14.3733 36.1011 14.8787 36.6106 14.8787H38.8294C39.1445 14.8787 39.4251 14.6777 39.5259 14.3786L42.3292 6.06695C42.5541 5.40096 43.496 5.4003 43.7216 6.06629L44.8685 9.45329H44.8612L46.5222 14.3792C46.623 14.6777 46.9029 14.8794 47.2187 14.8794H49.48C49.9894 14.8794 50.3443 14.3739 50.1712 13.895L45.3182 0.485632C45.2134 0.194427 44.9368 0.000732422 44.6277 0.000732422Z" fill="white"/>
<path d="M49.7543 0.000732422H52.1894C52.476 0.000732422 52.736 0.16723 52.856 0.427258L54.8719 4.78472C55.1353 5.35386 55.9445 5.35254 56.2066 4.78273L58.2059 0.428586C58.3259 0.167894 58.5866 0.000732422 58.8738 0.000732422H61.2645C61.8151 0.000732422 62.17 0.583804 61.9172 1.07268L57.4039 9.8022C57.3502 9.90634 57.3216 10.0224 57.3216 10.1398V14.1431C57.3216 14.549 56.9926 14.8781 56.5867 14.8781H54.4321C54.0262 14.8781 53.6972 14.549 53.6972 14.1431V10.1398C53.6972 10.0224 53.6693 9.90701 53.6149 9.8022L49.1016 1.07268C48.8488 0.583804 49.2037 0.000732422 49.7543 0.000732422Z" fill="white"/>
</svg>
