<svg width="40" height="24" viewBox="0 0 40 24" fill="none" xmlns="http://www.w3.org/2000/svg">
<path d="M13.914 14.7759C12.004 14.7759 10.1998 14.8638 8.40886 14.7461C7.17742 14.6652 5.93673 14.3915 4.74629 14.0283C3.78866 13.7361 3.45533 13.0014 3.53602 12.0283C3.62596 10.9418 4.43414 10.1602 5.4513 10.251C6.7621 10.3673 8.06761 10.6325 9.37841 10.6623C11.0199 10.7006 12.6653 10.5815 14.3068 10.4907C14.7115 10.468 15.1057 10.2765 15.5105 10.1871C16.0435 10.0694 16.5805 9.90203 17.1189 9.88926C18.8093 9.85097 20.5024 9.83111 22.1914 9.89919C22.8012 9.92331 23.4017 10.2183 24.0075 10.3871C24.2152 10.4453 24.4215 10.5148 24.6318 10.5503C27.6145 11.0382 30.5853 10.8169 33.5522 10.3744C34.5918 10.2198 35.3695 10.7474 35.6262 11.7404C35.9092 12.8383 35.5481 13.6312 34.5323 14.1319C33.1792 14.7986 31.7189 14.8383 30.2771 14.895C28.8751 14.9503 27.469 14.8638 26.0643 14.8411C25.8051 14.8369 25.5471 14.8411 25.2032 14.8411C25.2032 16.461 25.2125 18.0497 25.1966 19.6398C25.1927 20.0582 25.1702 20.4937 25.0564 20.888C24.698 22.1235 23.9123 22.9462 22.6914 22.9959C20.6968 23.0781 18.6942 23.1008 16.7009 23.0044C15.0528 22.9249 13.9563 21.532 13.9179 19.6852C13.8902 18.3235 13.9113 16.9603 13.9113 15.5972C13.9126 15.3433 13.914 15.0894 13.914 14.7759ZM15.0131 13.5617C15.0131 15.5674 15.0078 17.5617 15.0145 19.5561C15.0197 21.1434 15.6956 21.871 17.1916 21.8838C18.8172 21.8966 20.4415 21.8937 22.0671 21.8852C23.4493 21.8781 24.1199 21.159 24.1266 19.6738C24.1345 17.8653 24.1279 16.0567 24.1305 14.2468C24.1305 14.0028 24.149 13.7588 24.1557 13.6056C26.1477 13.6595 28.0563 13.7915 29.961 13.7376C31.2665 13.7007 32.5694 13.434 33.8643 13.2127C34.2863 13.1404 34.7717 12.939 34.5958 12.2822C34.445 11.7177 34.0773 11.5545 33.527 11.651C30.3644 12.2042 27.1913 12.2184 24.0141 11.8184C23.87 11.7999 23.7324 11.7205 23.5895 11.6765C23.1372 11.5375 22.6742 11.2524 22.2338 11.2893C19.9495 11.4808 17.6771 10.9872 15.3531 11.7318C13.3783 12.3645 11.1984 12.4212 9.07947 12.1262C7.94856 11.9687 6.81236 11.8666 5.68012 11.7148C5.2013 11.651 4.86137 11.7503 4.72513 12.3035C4.58625 12.868 4.86666 13.1418 5.3058 13.3078C5.53198 13.3929 5.76478 13.4737 6.00022 13.5149C8.96837 14.0383 11.9378 13.9886 15.0131 13.5617Z" fill="white"/>
<path d="M4.05647 22.4378C3.4057 22.7953 2.84355 23.1868 2.2285 23.418C1.56053 23.6691 0.975895 23.3414 0.53279 22.7854C0.0605843 22.1924 -0.182793 21.4704 0.162432 20.7612C1.12404 18.791 2.15575 16.859 3.18746 14.8547C3.52475 15.0363 3.81045 15.1909 4.1689 15.3852C4.01547 15.6959 3.87791 15.9782 3.73902 16.2576C2.96127 17.808 2.18088 19.3569 1.4071 20.9087C1.06848 21.5882 1.15446 21.9839 1.67825 22.2619C2.2113 22.5456 2.63324 22.3541 2.92821 21.669C3.24698 20.9272 3.54723 20.1768 3.89378 19.3385C4.07764 19.8321 4.22842 20.2179 4.36466 20.6094C4.63449 21.3839 5.16754 21.7683 5.92413 21.7754C7.41746 21.7882 8.91212 21.7995 10.4055 21.7712C11.4967 21.7513 12.0959 21.0704 12.1064 19.8931C12.1184 18.6037 12.1091 17.3129 12.1091 15.9739C12.4728 15.9739 12.7903 15.9739 13.1051 15.9739C13.1051 17.5512 13.2175 19.1484 13.0707 20.7172C12.9464 22.0449 11.8115 22.9215 10.5496 22.9385C8.969 22.9598 7.3844 22.9939 5.80641 22.9201C5.17813 22.8917 4.56042 22.5839 4.05647 22.4378Z" fill="#FF004E"/>
<path d="M35.1765 22.1285C34.5005 22.7909 33.6858 22.8463 32.8432 22.8335C31.4597 22.8136 30.0748 22.8448 28.6912 22.8207C27.2878 22.7966 26.1702 21.7569 26.0868 20.276C26.0061 18.8292 26.0696 17.3738 26.0696 15.8717C26.395 15.8717 26.686 15.8717 27.0418 15.8717C27.0418 17.2093 27.0392 18.5199 27.0431 19.8292C27.0471 20.9994 27.6529 21.6576 28.7534 21.6661C30.1594 21.6774 31.5655 21.6704 32.9715 21.6689C34.0085 21.6675 34.4331 21.3583 34.818 20.3356C34.9384 20.0164 35.064 19.6987 35.2386 19.249C35.5693 20.0491 35.8418 20.7242 36.1262 21.3952C36.4145 22.0746 36.9647 22.3994 37.4026 22.1597C37.9052 21.8831 38.0017 21.2633 37.6473 20.5668C36.7875 18.8774 35.9251 17.1894 35.0653 15.4986C35.0349 15.4376 35.0204 15.3681 34.9847 15.2589C35.2915 15.0929 35.5971 14.9284 35.933 14.7468C36.9065 16.6915 37.8801 18.5809 38.802 20.4987C39.2742 21.4831 38.9395 22.7541 38.1023 23.2151C37.2795 23.669 36.1407 23.5895 35.4569 22.581C35.3669 22.4533 35.2889 22.3129 35.1765 22.1285Z" fill="#01F2EB"/>
<path d="M19.6824 0.676876C21.8648 0.693898 23.6372 2.6457 23.5989 4.989C23.5618 7.23159 21.7259 9.13091 19.6242 9.0997C17.443 9.0685 15.6878 7.12095 15.7222 4.77056C15.7539 2.48116 17.5158 0.659855 19.6824 0.676876ZM19.6559 1.84285C18.1308 1.84569 16.8359 3.21025 16.8161 4.83439C16.7949 6.57768 18.0475 7.9394 19.6665 7.93231C21.2577 7.92522 22.5328 6.56491 22.5129 4.89538C22.4931 3.21876 21.2021 1.84002 19.6559 1.84285Z" fill="white"/>
<path d="M5.0217 5.99323C5.04286 3.84851 6.68433 2.17756 8.73585 2.21019C10.7133 2.24139 12.2873 3.98327 12.2728 6.12514C12.2595 8.2571 10.5757 10.0103 8.58109 9.96776C6.57058 9.92521 5.00053 8.17199 5.0217 5.99323ZM8.64723 3.3634C7.30733 3.35772 6.10764 4.62299 6.0997 6.04997C6.09176 7.52091 7.28749 8.81455 8.65252 8.80888C10.0268 8.8032 11.1842 7.58333 11.1961 6.1294C11.2067 4.66413 10.0136 3.36907 8.64723 3.3634Z" fill="#FF004E"/>
<path d="M30.7184 2.212C32.7408 2.22619 34.3108 3.94962 34.3002 6.14114C34.2897 8.24189 32.6455 9.97667 30.6681 9.97099C28.6668 9.96532 27.0479 8.21352 27.0479 6.05036C27.0465 3.90848 28.684 2.19782 30.7184 2.212ZM30.7104 3.36663C29.2991 3.35103 28.1404 4.5624 28.1325 6.06313C28.1245 7.57096 29.2634 8.80502 30.6681 8.81069C32.0437 8.81637 33.2037 7.61067 33.2249 6.15675C33.246 4.68155 32.0754 3.38223 30.7104 3.36663Z" fill="#01F2EB"/>
</svg>
