<svg width="20" height="26" viewBox="0 0 20 26" fill="none" xmlns="http://www.w3.org/2000/svg">
<path d="M7.14365 16.5385C7.14365 15.1126 7.14365 13.7036 7.14365 12.2777C7.14365 9.82857 7.14365 7.36267 7.14365 4.91354C7.14365 3.28638 8.00281 2.56506 9.55591 2.86701C9.77071 2.90056 9.86984 2.96766 9.95245 2.68249C10.382 1.2734 10.9934 0.736608 11.8856 0.854032C12.91 0.98823 13.4056 1.72632 13.5048 3.20251C13.5048 3.25283 13.5378 3.30316 13.5543 3.35348C13.7196 3.48768 13.8683 3.31993 14.0004 3.28638C15.157 3.00121 16.1649 3.72253 16.264 4.93032C16.3136 5.45034 16.2805 5.98713 16.2805 6.52393C16.2805 7.63106 16.2805 7.63106 17.338 7.66461C18.2632 7.68139 19.0563 8.43626 19.0563 9.45952C19.0728 12.6971 19.1554 15.9346 19.0232 19.1722C18.8911 22.5439 16.1483 25.0601 12.8273 25.0937C12.1334 25.0937 11.456 25.0937 10.762 25.0937C8.48196 25.0937 6.68102 24.1207 5.35923 22.2419C3.97135 20.229 2.59999 18.216 1.22863 16.1862C0.567736 15.2301 0.749482 14.5758 1.75735 14.0223C3.09566 13.301 4.68181 13.6365 5.67315 14.8946C6.10274 15.4481 6.49927 16.0353 6.92885 16.6224C7.01147 16.5721 7.07756 16.5553 7.14365 16.5385ZM7.90368 10.6002C7.90368 12.5293 7.90368 14.4584 7.90368 16.3875C7.90368 16.8405 7.7715 17.2263 7.32539 17.394C6.84624 17.5618 6.48275 17.3605 6.20187 16.9411C5.83838 16.4211 5.49141 15.8843 5.09487 15.381C4.35136 14.4416 3.24436 14.19 2.21997 14.6765C1.69126 14.9281 1.50951 15.1965 1.90605 15.7501C3.32697 17.7798 4.69833 19.8264 6.10274 21.8561C6.87929 22.9633 7.90368 23.7685 9.20894 24.0704C10.8116 24.4394 12.4473 24.4394 14.0335 24.1375C16.5944 23.6678 18.2797 21.4032 18.3293 18.4508C18.3789 15.5991 18.3458 12.7474 18.3458 9.91244C18.3458 9.74469 18.3458 9.57695 18.3128 9.4092C18.2136 8.85563 17.9162 8.46981 17.338 8.46981C16.7432 8.46981 16.4623 8.8724 16.3466 9.4092C16.297 9.62727 16.3136 9.84534 16.3136 10.0802C16.3136 11.2544 16.3136 12.4287 16.3136 13.6029C16.3136 13.9049 16.3797 14.2907 15.9336 14.2739C15.504 14.2571 15.5701 13.8545 15.5701 13.5694C15.5535 13.3177 15.5701 13.0661 15.5701 12.8145C15.5701 10.3318 15.5866 7.84914 15.5701 5.36646C15.5701 4.52772 15.1405 3.95738 14.5292 4.02448C13.7691 4.09158 13.5543 4.64514 13.5378 5.33291C13.5378 5.53421 13.5378 5.71873 13.5378 5.92003C13.5378 8.45303 13.5378 11.0028 13.5378 13.5358C13.5378 13.7539 13.5378 13.9887 13.5213 14.2068C13.5048 14.4249 13.4056 14.5758 13.1578 14.5758C12.91 14.5758 12.8108 14.4081 12.7943 14.2068C12.7778 13.9887 12.7778 13.7539 12.7778 13.5358C12.7778 10.0802 12.7778 6.6078 12.7778 3.15218C12.7778 2.22957 12.4143 1.69277 11.7864 1.676C11.1255 1.65922 10.7455 2.19602 10.7455 3.18573C10.7455 3.31993 10.7455 3.47091 10.7455 3.6051C10.7455 6.89297 10.762 10.1976 10.729 13.4855C10.729 13.8713 11.0099 14.5591 10.3325 14.5591C9.73766 14.5591 9.9855 13.9049 9.9855 13.5358C9.93593 10.7009 9.95245 7.91624 9.95245 5.11484C9.95245 4.81289 9.96897 4.51095 9.83679 4.209C9.65505 3.77285 9.35765 3.50446 8.89502 3.52123C8.44891 3.53801 8.11847 3.8064 8.00281 4.25932C7.9202 4.5445 7.90368 4.86322 7.90368 5.16516C7.90368 6.97685 7.90368 8.78853 7.90368 10.6002Z" fill="white"/>
</svg>
